G04 Layer: TopPasteMaskLayer*
G04 EasyEDA Pro v2.2.40.8, 2025-08-06 11:59:20*
G04 Gerber Generator version 0.3*
G04 Scale: 100 percent, Rotated: No, Reflected: No*
G04 Dimensions in millimeters*
G04 Leading zeros omitted, absolute positions, 4 integers and 5 decimals*
G04 Generated by one-click*
%FSLAX45Y45*%
%MOMM*%
%ADD10R,0.95001X2.1*%
%ADD11R,2.1X0.95001*%
%ADD12R,0.9X0.9*%
%ADD13R,4.49999X1.65001*%
%ADD14R,2.0X2.0*%
%ADD15R,3.49999X2.99999*%
%ADD16O,1.95021X0.5684*%
%ADD17R,2.49999X1.1*%
%ADD18R,2.3480X3.59999*%
%ADD19R,2.34X3.59999*%
%ADD20R,1.03749X0.532*%
%ADD21R,3.79999X3.79999*%
%ADD22R,4.29999X2.79999*%
%ADD23O,2.4005X0.57399*%
%ADD24R,1.0X0.75001*%
%ADD25R,1.7X0.95001*%
%ADD26R,0.532X1.03749*%
%ADD27R,0.8X0.8*%
%ADD28R,1.68001X1.51999*%
G75*


G04 PolygonModel Start*
G36*
G01X9365637Y-2622439D02*
G01X9365637Y-2750437D01*
G01X9360636Y-2755438D01*
G01X9245635Y-2755438D01*
G01X9240636Y-2750437D01*
G01X9240133Y-2709434D01*
G01X9285134Y-2709434D01*
G01X9285134Y-2664435D01*
G01X9241134Y-2664435D01*
G01X9240636Y-2622439D01*
G01X9245635Y-2617437D01*
G01X9360636Y-2617437D01*
G01X9365637Y-2622439D01*
G37*
G36*
G01X9024642Y-2750440D02*
G01X9024642Y-2622441D01*
G01X9029643Y-2617440D01*
G01X9144644Y-2617440D01*
G01X9149643Y-2622441D01*
G01X9150146Y-2663445D01*
G01X9105145Y-2663445D01*
G01X9105145Y-2708443D01*
G01X9149145Y-2708443D01*
G01X9149643Y-2750440D01*
G01X9144644Y-2755441D01*
G01X9029643Y-2755441D01*
G01X9024642Y-2750440D01*
G37*
G36*
G01X2004898Y-3377494D02*
G01X2004898Y-3249496D01*
G01X2009899Y-3244494D01*
G01X2124901Y-3244494D01*
G01X2129899Y-3249496D01*
G01X2130402Y-3290499D01*
G01X2085401Y-3290499D01*
G01X2085401Y-3335498D01*
G01X2129401Y-3335498D01*
G01X2129899Y-3377494D01*
G01X2124901Y-3382495D01*
G01X2009899Y-3382495D01*
G01X2004898Y-3377494D01*
G37*
G36*
G01X2345893Y-3249493D02*
G01X2345893Y-3377491D01*
G01X2340892Y-3382493D01*
G01X2225891Y-3382493D01*
G01X2220892Y-3377491D01*
G01X2220389Y-3336488D01*
G01X2265390Y-3336488D01*
G01X2265390Y-3291489D01*
G01X2221390Y-3291489D01*
G01X2220892Y-3249493D01*
G01X2225891Y-3244492D01*
G01X2340892Y-3244492D01*
G01X2345893Y-3249493D01*
G37*
G36*
G01X4022972Y-3185134D02*
G01X4150970Y-3185134D01*
G01X4155971Y-3190136D01*
G01X4155971Y-3305137D01*
G01X4150970Y-3310135D01*
G01X4109967Y-3310638D01*
G01X4109967Y-3265637D01*
G01X4064968Y-3265637D01*
G01X4064968Y-3309638D01*
G01X4022972Y-3310135D01*
G01X4017971Y-3305137D01*
G01X4017971Y-3190136D01*
G01X4022972Y-3185134D01*
G37*
G36*
G01X4150973Y-3526129D02*
G01X4022974Y-3526129D01*
G01X4017973Y-3521128D01*
G01X4017973Y-3406127D01*
G01X4022974Y-3401128D01*
G01X4063978Y-3400625D01*
G01X4063978Y-3445627D01*
G01X4108976Y-3445627D01*
G01X4108976Y-3401626D01*
G01X4150973Y-3401128D01*
G01X4155974Y-3406127D01*
G01X4155974Y-3521128D01*
G01X4150973Y-3526129D01*
G37*
G36*
G01X4516475Y-2919632D02*
G01X4516475Y-2791634D01*
G01X4521476Y-2786632D01*
G01X4636477Y-2786632D01*
G01X4641476Y-2791634D01*
G01X4641979Y-2832637D01*
G01X4596978Y-2832637D01*
G01X4596978Y-2877636D01*
G01X4640978Y-2877636D01*
G01X4641476Y-2919632D01*
G01X4636477Y-2924633D01*
G01X4521476Y-2924633D01*
G01X4516475Y-2919632D01*
G37*
G36*
G01X4857470Y-2791631D02*
G01X4857470Y-2919629D01*
G01X4852469Y-2924631D01*
G01X4737468Y-2924631D01*
G01X4732469Y-2919629D01*
G01X4731966Y-2878626D01*
G01X4776967Y-2878626D01*
G01X4776967Y-2833628D01*
G01X4732967Y-2833628D01*
G01X4732469Y-2791631D01*
G01X4737468Y-2786630D01*
G01X4852469Y-2786630D01*
G01X4857470Y-2791631D01*
G37*
G36*
G01X2351296Y-5883186D02*
G01X2223298Y-5883186D01*
G01X2218296Y-5878185D01*
G01X2218296Y-5763184D01*
G01X2223298Y-5758185D01*
G01X2264301Y-5757682D01*
G01X2264301Y-5802683D01*
G01X2309299Y-5802683D01*
G01X2309299Y-5758683D01*
G01X2351296Y-5758185D01*
G01X2356297Y-5763184D01*
G01X2356297Y-5878185D01*
G01X2351296Y-5883186D01*
G37*
G36*
G01X2223295Y-5542191D02*
G01X2351293Y-5542191D01*
G01X2356295Y-5547192D01*
G01X2356295Y-5662193D01*
G01X2351293Y-5667192D01*
G01X2310290Y-5667695D01*
G01X2310290Y-5622694D01*
G01X2265291Y-5622694D01*
G01X2265291Y-5666694D01*
G01X2223295Y-5667192D01*
G01X2218294Y-5662193D01*
G01X2218294Y-5547192D01*
G01X2223295Y-5542191D01*
G37*
G36*
G01X1473695Y-5551289D02*
G01X1473695Y-5423291D01*
G01X1478697Y-5418290D01*
G01X1593698Y-5418290D01*
G01X1598696Y-5423291D01*
G01X1599199Y-5464294D01*
G01X1554198Y-5464294D01*
G01X1554198Y-5509293D01*
G01X1598198Y-5509293D01*
G01X1598696Y-5551289D01*
G01X1593698Y-5556291D01*
G01X1478697Y-5556291D01*
G01X1473695Y-5551289D01*
G37*
G36*
G01X1688696Y-5551289D02*
G01X1688699Y-5509293D01*
G01X1733197Y-5509293D01*
G01X1733197Y-5464294D01*
G01X1689199Y-5464294D01*
G01X1688696Y-5423291D01*
G01X1693697Y-5418290D01*
G01X1808696Y-5418290D01*
G01X1813697Y-5423291D01*
G01X1813697Y-5551289D01*
G01X1808696Y-5556291D01*
G01X1693697Y-5556291D01*
G01X1688696Y-5551289D01*
G37*
G36*
G01X1813700Y-4848690D02*
G01X1813700Y-4976688D01*
G01X1808698Y-4981689D01*
G01X1693697Y-4981689D01*
G01X1688699Y-4976688D01*
G01X1688196Y-4935685D01*
G01X1733197Y-4935685D01*
G01X1733197Y-4890686D01*
G01X1689197Y-4890686D01*
G01X1688699Y-4848690D01*
G01X1693697Y-4843689D01*
G01X1808698Y-4843689D01*
G01X1813700Y-4848690D01*
G37*
G36*
G01X1598699Y-4848690D02*
G01X1598696Y-4890686D01*
G01X1554198Y-4890686D01*
G01X1554198Y-4935685D01*
G01X1598196Y-4935685D01*
G01X1598699Y-4976688D01*
G01X1593698Y-4981689D01*
G01X1478699Y-4981689D01*
G01X1473698Y-4976688D01*
G01X1473698Y-4848690D01*
G01X1478699Y-4843689D01*
G01X1593698Y-4843689D01*
G01X1598699Y-4848690D01*
G37*
G36*
G01X1929900Y-5036998D02*
G01X2057898Y-5036998D01*
G01X2062899Y-5041999D01*
G01X2062899Y-5157000D01*
G01X2057898Y-5161999D01*
G01X2016895Y-5162502D01*
G01X2016895Y-5117501D01*
G01X1971896Y-5117501D01*
G01X1971896Y-5161501D01*
G01X1929900Y-5161999D01*
G01X1924898Y-5157000D01*
G01X1924898Y-5041999D01*
G01X1929900Y-5036998D01*
G37*
G36*
G01X1929900Y-5251999D02*
G01X1971896Y-5252001D01*
G01X1971896Y-5296499D01*
G01X2016895Y-5296499D01*
G01X2016895Y-5252502D01*
G01X2057898Y-5251999D01*
G01X2062899Y-5257000D01*
G01X2062899Y-5371998D01*
G01X2057898Y-5377000D01*
G01X1929900Y-5377000D01*
G01X1924898Y-5371998D01*
G01X1924898Y-5257000D01*
G01X1929900Y-5251999D01*
G37*
G36*
G01X4356600Y-6139497D02*
G01X4228602Y-6139497D01*
G01X4223601Y-6134496D01*
G01X4223601Y-6019495D01*
G01X4228602Y-6014496D01*
G01X4269605Y-6013994D01*
G01X4269605Y-6058995D01*
G01X4314604Y-6058995D01*
G01X4314604Y-6014994D01*
G01X4356600Y-6014496D01*
G01X4361602Y-6019495D01*
G01X4361602Y-6134496D01*
G01X4356600Y-6139497D01*
G37*
G36*
G01X4228600Y-5798502D02*
G01X4356598Y-5798502D01*
G01X4361599Y-5803504D01*
G01X4361599Y-5918505D01*
G01X4356598Y-5923504D01*
G01X4315595Y-5924006D01*
G01X4315595Y-5879005D01*
G01X4270596Y-5879005D01*
G01X4270596Y-5923006D01*
G01X4228600Y-5923504D01*
G01X4223598Y-5918505D01*
G01X4223598Y-5803504D01*
G01X4228600Y-5798502D01*
G37*
G36*
G01X2870700Y-6050597D02*
G01X2742702Y-6050597D01*
G01X2737701Y-6045596D01*
G01X2737701Y-5930595D01*
G01X2742702Y-5925596D01*
G01X2783705Y-5925094D01*
G01X2783705Y-5970095D01*
G01X2828704Y-5970095D01*
G01X2828704Y-5926094D01*
G01X2870700Y-5925596D01*
G01X2875702Y-5930595D01*
G01X2875702Y-6045596D01*
G01X2870700Y-6050597D01*
G37*
G36*
G01X2742700Y-5709602D02*
G01X2870698Y-5709602D01*
G01X2875699Y-5714604D01*
G01X2875699Y-5829605D01*
G01X2870698Y-5834604D01*
G01X2829695Y-5835106D01*
G01X2829695Y-5790105D01*
G01X2784696Y-5790105D01*
G01X2784696Y-5834106D01*
G01X2742700Y-5834604D01*
G01X2737698Y-5829605D01*
G01X2737698Y-5714604D01*
G01X2742700Y-5709602D01*
G37*
G36*
G01X8559300Y-4973498D02*
G01X8687298Y-4973498D01*
G01X8692299Y-4978499D01*
G01X8692299Y-5093500D01*
G01X8687298Y-5098499D01*
G01X8646295Y-5099002D01*
G01X8646295Y-5054001D01*
G01X8601296Y-5054001D01*
G01X8601296Y-5098001D01*
G01X8559300Y-5098499D01*
G01X8554298Y-5093500D01*
G01X8554298Y-4978499D01*
G01X8559300Y-4973498D01*
G37*
G36*
G01X8559300Y-5188499D02*
G01X8601296Y-5188501D01*
G01X8601296Y-5232999D01*
G01X8646295Y-5232999D01*
G01X8646295Y-5189002D01*
G01X8687298Y-5188499D01*
G01X8692299Y-5193500D01*
G01X8692299Y-5308498D01*
G01X8687298Y-5313500D01*
G01X8559300Y-5313500D01*
G01X8554298Y-5308498D01*
G01X8554298Y-5193500D01*
G01X8559300Y-5188499D01*
G37*
G36*
G01X8940300Y-4973498D02*
G01X9068298Y-4973498D01*
G01X9073299Y-4978499D01*
G01X9073299Y-5093500D01*
G01X9068298Y-5098499D01*
G01X9027295Y-5099002D01*
G01X9027295Y-5054001D01*
G01X8982296Y-5054001D01*
G01X8982296Y-5098001D01*
G01X8940300Y-5098499D01*
G01X8935298Y-5093500D01*
G01X8935298Y-4978499D01*
G01X8940300Y-4973498D01*
G37*
G36*
G01X8940300Y-5188499D02*
G01X8982296Y-5188501D01*
G01X8982296Y-5232999D01*
G01X9027295Y-5232999D01*
G01X9027295Y-5189002D01*
G01X9068298Y-5188499D01*
G01X9073299Y-5193500D01*
G01X9073299Y-5308498D01*
G01X9068298Y-5313500D01*
G01X8940300Y-5313500D01*
G01X8935298Y-5308498D01*
G01X8935298Y-5193500D01*
G01X8940300Y-5188499D01*
G37*
G36*
G01X8800600Y-8669198D02*
G01X8928598Y-8669198D01*
G01X8933599Y-8674199D01*
G01X8933599Y-8789200D01*
G01X8928598Y-8794199D01*
G01X8887595Y-8794702D01*
G01X8887595Y-8749701D01*
G01X8842596Y-8749701D01*
G01X8842596Y-8793701D01*
G01X8800600Y-8794199D01*
G01X8795598Y-8789200D01*
G01X8795598Y-8674199D01*
G01X8800600Y-8669198D01*
G37*
G36*
G01X8800600Y-8884199D02*
G01X8842596Y-8884201D01*
G01X8842596Y-8928699D01*
G01X8887595Y-8928699D01*
G01X8887595Y-8884702D01*
G01X8928598Y-8884199D01*
G01X8933599Y-8889200D01*
G01X8933599Y-9004198D01*
G01X8928598Y-9009200D01*
G01X8800600Y-9009200D01*
G01X8795598Y-9004198D01*
G01X8795598Y-8889200D01*
G01X8800600Y-8884199D01*
G37*
G36*
G01X8813300Y-7361098D02*
G01X8941298Y-7361098D01*
G01X8946299Y-7366099D01*
G01X8946299Y-7481100D01*
G01X8941298Y-7486099D01*
G01X8900295Y-7486602D01*
G01X8900295Y-7441601D01*
G01X8855296Y-7441601D01*
G01X8855296Y-7485601D01*
G01X8813300Y-7486099D01*
G01X8808298Y-7481100D01*
G01X8808298Y-7366099D01*
G01X8813300Y-7361098D01*
G37*
G36*
G01X8813300Y-7576099D02*
G01X8855296Y-7576101D01*
G01X8855296Y-7620599D01*
G01X8900295Y-7620599D01*
G01X8900295Y-7576602D01*
G01X8941298Y-7576099D01*
G01X8946299Y-7581100D01*
G01X8946299Y-7696098D01*
G01X8941298Y-7701100D01*
G01X8813300Y-7701100D01*
G01X8808298Y-7696098D01*
G01X8808298Y-7581100D01*
G01X8813300Y-7576099D01*
G37*
G36*
G01X5002987Y-1413998D02*
G01X5002987Y-1285999D01*
G01X5007988Y-1280998D01*
G01X5122990Y-1280998D01*
G01X5127988Y-1285999D01*
G01X5128491Y-1327003D01*
G01X5083490Y-1327003D01*
G01X5083490Y-1372001D01*
G01X5127490Y-1372001D01*
G01X5127988Y-1413998D01*
G01X5122990Y-1418999D01*
G01X5007988Y-1418999D01*
G01X5002987Y-1413998D01*
G37*
G36*
G01X5217988Y-1413998D02*
G01X5217991Y-1372001D01*
G01X5262489Y-1372001D01*
G01X5262489Y-1327003D01*
G01X5218491Y-1327003D01*
G01X5217988Y-1285999D01*
G01X5222989Y-1280998D01*
G01X5337988Y-1280998D01*
G01X5342989Y-1285999D01*
G01X5342989Y-1413998D01*
G01X5337988Y-1418999D01*
G01X5222989Y-1418999D01*
G01X5217988Y-1413998D01*
G37*
G36*
G01X4602988Y-1413998D02*
G01X4602988Y-1285999D01*
G01X4607989Y-1280998D01*
G01X4722990Y-1280998D01*
G01X4727989Y-1285999D01*
G01X4728492Y-1327003D01*
G01X4683491Y-1327003D01*
G01X4683491Y-1372001D01*
G01X4727491Y-1372001D01*
G01X4727989Y-1413998D01*
G01X4722990Y-1418999D01*
G01X4607989Y-1418999D01*
G01X4602988Y-1413998D01*
G37*
G36*
G01X4817989Y-1413998D02*
G01X4817991Y-1372001D01*
G01X4862490Y-1372001D01*
G01X4862490Y-1327003D01*
G01X4818492Y-1327003D01*
G01X4817989Y-1285999D01*
G01X4822990Y-1280998D01*
G01X4937989Y-1280998D01*
G01X4942990Y-1285999D01*
G01X4942990Y-1413998D01*
G01X4937989Y-1418999D01*
G01X4822990Y-1418999D01*
G01X4817989Y-1413998D01*
G37*
G36*
G01X4202989Y-1413998D02*
G01X4202989Y-1285999D01*
G01X4207990Y-1280998D01*
G01X4322991Y-1280998D01*
G01X4327990Y-1285999D01*
G01X4328493Y-1327003D01*
G01X4283492Y-1327003D01*
G01X4283492Y-1372001D01*
G01X4327492Y-1372001D01*
G01X4327990Y-1413998D01*
G01X4322991Y-1418999D01*
G01X4207990Y-1418999D01*
G01X4202989Y-1413998D01*
G37*
G36*
G01X4417990Y-1413998D02*
G01X4417992Y-1372001D01*
G01X4462490Y-1372001D01*
G01X4462490Y-1327003D01*
G01X4418493Y-1327003D01*
G01X4417990Y-1285999D01*
G01X4422991Y-1280998D01*
G01X4537989Y-1280998D01*
G01X4542991Y-1285999D01*
G01X4542991Y-1413998D01*
G01X4537989Y-1418999D01*
G01X4422991Y-1418999D01*
G01X4417990Y-1413998D01*
G37*
G36*
G01X5852986Y-1413998D02*
G01X5852986Y-1285999D01*
G01X5857987Y-1280998D01*
G01X5972988Y-1280998D01*
G01X5977987Y-1285999D01*
G01X5978489Y-1327003D01*
G01X5933488Y-1327003D01*
G01X5933488Y-1372001D01*
G01X5977489Y-1372001D01*
G01X5977987Y-1413998D01*
G01X5972988Y-1418999D01*
G01X5857987Y-1418999D01*
G01X5852986Y-1413998D01*
G37*
G36*
G01X6067986Y-1413998D02*
G01X6067989Y-1372001D01*
G01X6112487Y-1372001D01*
G01X6112487Y-1327003D01*
G01X6068489Y-1327003D01*
G01X6067986Y-1285999D01*
G01X6072988Y-1280998D01*
G01X6187986Y-1280998D01*
G01X6192987Y-1285999D01*
G01X6192987Y-1413998D01*
G01X6187986Y-1418999D01*
G01X6072988Y-1418999D01*
G01X6067986Y-1413998D01*
G37*
G36*
G01X5452986Y-1413998D02*
G01X5452986Y-1285999D01*
G01X5457988Y-1280998D01*
G01X5572989Y-1280998D01*
G01X5577987Y-1285999D01*
G01X5578490Y-1327003D01*
G01X5533489Y-1327003D01*
G01X5533489Y-1372001D01*
G01X5577489Y-1372001D01*
G01X5577987Y-1413998D01*
G01X5572989Y-1418999D01*
G01X5457988Y-1418999D01*
G01X5452986Y-1413998D01*
G37*
G36*
G01X5667987Y-1413998D02*
G01X5667990Y-1372001D01*
G01X5712488Y-1372001D01*
G01X5712488Y-1327003D01*
G01X5668490Y-1327003D01*
G01X5667987Y-1285999D01*
G01X5672988Y-1280998D01*
G01X5787987Y-1280998D01*
G01X5792988Y-1285999D01*
G01X5792988Y-1413998D01*
G01X5787987Y-1418999D01*
G01X5672988Y-1418999D01*
G01X5667987Y-1413998D01*
G37*
G36*
G01X7102983Y-1413998D02*
G01X7102983Y-1285999D01*
G01X7107984Y-1280998D01*
G01X7222985Y-1280998D01*
G01X7227984Y-1285999D01*
G01X7228487Y-1327003D01*
G01X7183486Y-1327003D01*
G01X7183486Y-1372001D01*
G01X7227486Y-1372001D01*
G01X7227984Y-1413998D01*
G01X7222985Y-1418999D01*
G01X7107984Y-1418999D01*
G01X7102983Y-1413998D01*
G37*
G36*
G01X7317984Y-1413998D02*
G01X7317986Y-1372001D01*
G01X7362485Y-1372001D01*
G01X7362485Y-1327003D01*
G01X7318487Y-1327003D01*
G01X7317984Y-1285999D01*
G01X7322985Y-1280998D01*
G01X7437984Y-1280998D01*
G01X7442985Y-1285999D01*
G01X7442985Y-1413998D01*
G01X7437984Y-1418999D01*
G01X7322985Y-1418999D01*
G01X7317984Y-1413998D01*
G37*
G36*
G01X6702984Y-1413998D02*
G01X6702984Y-1285999D01*
G01X6707985Y-1280998D01*
G01X6822986Y-1280998D01*
G01X6827985Y-1285999D01*
G01X6828488Y-1327003D01*
G01X6783487Y-1327003D01*
G01X6783487Y-1372001D01*
G01X6827487Y-1372001D01*
G01X6827985Y-1413998D01*
G01X6822986Y-1418999D01*
G01X6707985Y-1418999D01*
G01X6702984Y-1413998D01*
G37*
G36*
G01X6917985Y-1413998D02*
G01X6917987Y-1372001D01*
G01X6962485Y-1372001D01*
G01X6962485Y-1327003D01*
G01X6918488Y-1327003D01*
G01X6917985Y-1285999D01*
G01X6922986Y-1280998D01*
G01X7037984Y-1280998D01*
G01X7042986Y-1285999D01*
G01X7042986Y-1413998D01*
G01X7037984Y-1418999D01*
G01X6922986Y-1418999D01*
G01X6917985Y-1413998D01*
G37*
G36*
G01X3352991Y-1413998D02*
G01X3352991Y-1285999D01*
G01X3357992Y-1280998D01*
G01X3472993Y-1280998D01*
G01X3477992Y-1285999D01*
G01X3478494Y-1327003D01*
G01X3433493Y-1327003D01*
G01X3433493Y-1372001D01*
G01X3477494Y-1372001D01*
G01X3477992Y-1413998D01*
G01X3472993Y-1418999D01*
G01X3357992Y-1418999D01*
G01X3352991Y-1413998D01*
G37*
G36*
G01X3567991Y-1413998D02*
G01X3567994Y-1372001D01*
G01X3612492Y-1372001D01*
G01X3612492Y-1327003D01*
G01X3568494Y-1327003D01*
G01X3567991Y-1285999D01*
G01X3572993Y-1280998D01*
G01X3687991Y-1280998D01*
G01X3692992Y-1285999D01*
G01X3692992Y-1413998D01*
G01X3687991Y-1418999D01*
G01X3572993Y-1418999D01*
G01X3567991Y-1413998D01*
G37*
G36*
G01X2952991Y-1413998D02*
G01X2952991Y-1285999D01*
G01X2957993Y-1280998D01*
G01X3072994Y-1280998D01*
G01X3077992Y-1285999D01*
G01X3078495Y-1327003D01*
G01X3033494Y-1327003D01*
G01X3033494Y-1372001D01*
G01X3077494Y-1372001D01*
G01X3077992Y-1413998D01*
G01X3072994Y-1418999D01*
G01X2957993Y-1418999D01*
G01X2952991Y-1413998D01*
G37*
G36*
G01X3167992Y-1413998D02*
G01X3167995Y-1372001D01*
G01X3212493Y-1372001D01*
G01X3212493Y-1327003D01*
G01X3168495Y-1327003D01*
G01X3167992Y-1285999D01*
G01X3172993Y-1280998D01*
G01X3287992Y-1280998D01*
G01X3292993Y-1285999D01*
G01X3292993Y-1413998D01*
G01X3287992Y-1418999D01*
G01X3172993Y-1418999D01*
G01X3167992Y-1413998D01*
G37*
G36*
G01X3754590Y-1413998D02*
G01X3754590Y-1285999D01*
G01X3759591Y-1280998D01*
G01X3874592Y-1280998D01*
G01X3879591Y-1285999D01*
G01X3880094Y-1327003D01*
G01X3835093Y-1327003D01*
G01X3835093Y-1372001D01*
G01X3879093Y-1372001D01*
G01X3879591Y-1413998D01*
G01X3874592Y-1418999D01*
G01X3759591Y-1418999D01*
G01X3754590Y-1413998D01*
G37*
G36*
G01X3969591Y-1413998D02*
G01X3969593Y-1372001D01*
G01X4014092Y-1372001D01*
G01X4014092Y-1327003D01*
G01X3970094Y-1327003D01*
G01X3969591Y-1285999D01*
G01X3974592Y-1280998D01*
G01X4089591Y-1280998D01*
G01X4094592Y-1285999D01*
G01X4094592Y-1413998D01*
G01X4089591Y-1418999D01*
G01X3974592Y-1418999D01*
G01X3969591Y-1413998D01*
G37*
G36*
G01X6254585Y-1413998D02*
G01X6254585Y-1285999D01*
G01X6259586Y-1280998D01*
G01X6374587Y-1280998D01*
G01X6379586Y-1285999D01*
G01X6380089Y-1327003D01*
G01X6335088Y-1327003D01*
G01X6335088Y-1372001D01*
G01X6379088Y-1372001D01*
G01X6379586Y-1413998D01*
G01X6374587Y-1418999D01*
G01X6259586Y-1418999D01*
G01X6254585Y-1413998D01*
G37*
G36*
G01X6469586Y-1413998D02*
G01X6469588Y-1372001D01*
G01X6514087Y-1372001D01*
G01X6514087Y-1327003D01*
G01X6470089Y-1327003D01*
G01X6469586Y-1285999D01*
G01X6474587Y-1280998D01*
G01X6589586Y-1280998D01*
G01X6594587Y-1285999D01*
G01X6594587Y-1413998D01*
G01X6589586Y-1418999D01*
G01X6474587Y-1418999D01*
G01X6469586Y-1413998D01*
G37*
G36*
G01X7504582Y-1413998D02*
G01X7504582Y-1285999D01*
G01X7509584Y-1280998D01*
G01X7624585Y-1280998D01*
G01X7629583Y-1285999D01*
G01X7630086Y-1327003D01*
G01X7585085Y-1327003D01*
G01X7585085Y-1372001D01*
G01X7629086Y-1372001D01*
G01X7629583Y-1413998D01*
G01X7624585Y-1418999D01*
G01X7509584Y-1418999D01*
G01X7504582Y-1413998D01*
G37*
G36*
G01X7719583Y-1413998D02*
G01X7719586Y-1372001D01*
G01X7764084Y-1372001D01*
G01X7764084Y-1327003D01*
G01X7720086Y-1327003D01*
G01X7719583Y-1285999D01*
G01X7724585Y-1280998D01*
G01X7839583Y-1280998D01*
G01X7844584Y-1285999D01*
G01X7844584Y-1413998D01*
G01X7839583Y-1418999D01*
G01X7724585Y-1418999D01*
G01X7719583Y-1413998D01*
G37*
G36*
G01X7488098Y-8446000D02*
G01X7488098Y-8318002D01*
G01X7493099Y-8313001D01*
G01X7608100Y-8313001D01*
G01X7613099Y-8318002D01*
G01X7613602Y-8359005D01*
G01X7568601Y-8359005D01*
G01X7568601Y-8404004D01*
G01X7612601Y-8404004D01*
G01X7613099Y-8446000D01*
G01X7608100Y-8451002D01*
G01X7493099Y-8451002D01*
G01X7488098Y-8446000D01*
G37*
G36*
G01X7703099Y-8446000D02*
G01X7703101Y-8404004D01*
G01X7747599Y-8404004D01*
G01X7747599Y-8359005D01*
G01X7703602Y-8359005D01*
G01X7703099Y-8318002D01*
G01X7708100Y-8313001D01*
G01X7823098Y-8313001D01*
G01X7828100Y-8318002D01*
G01X7828100Y-8446000D01*
G01X7823098Y-8451002D01*
G01X7708100Y-8451002D01*
G01X7703099Y-8446000D01*
G37*
G36*
G01X7081698Y-7506200D02*
G01X7081698Y-7378202D01*
G01X7086699Y-7373201D01*
G01X7201700Y-7373201D01*
G01X7206699Y-7378202D01*
G01X7207202Y-7419205D01*
G01X7162201Y-7419205D01*
G01X7162201Y-7464204D01*
G01X7206201Y-7464204D01*
G01X7206699Y-7506200D01*
G01X7201700Y-7511202D01*
G01X7086699Y-7511202D01*
G01X7081698Y-7506200D01*
G37*
G36*
G01X7296699Y-7506200D02*
G01X7296701Y-7464204D01*
G01X7341199Y-7464204D01*
G01X7341199Y-7419205D01*
G01X7297202Y-7419205D01*
G01X7296699Y-7378202D01*
G01X7301700Y-7373201D01*
G01X7416698Y-7373201D01*
G01X7421700Y-7378202D01*
G01X7421700Y-7506200D01*
G01X7416698Y-7511202D01*
G01X7301700Y-7511202D01*
G01X7296699Y-7506200D01*
G37*
G36*
G01X7421702Y-7581400D02*
G01X7421702Y-7709398D01*
G01X7416701Y-7714399D01*
G01X7301700Y-7714399D01*
G01X7296701Y-7709398D01*
G01X7296198Y-7668395D01*
G01X7341199Y-7668395D01*
G01X7341199Y-7623396D01*
G01X7297199Y-7623396D01*
G01X7296701Y-7581400D01*
G01X7301700Y-7576398D01*
G01X7416701Y-7576398D01*
G01X7421702Y-7581400D01*
G37*
G36*
G01X7206701Y-7581400D02*
G01X7206699Y-7623396D01*
G01X7162201Y-7623396D01*
G01X7162201Y-7668395D01*
G01X7206198Y-7668395D01*
G01X7206701Y-7709398D01*
G01X7201700Y-7714399D01*
G01X7086702Y-7714399D01*
G01X7081700Y-7709398D01*
G01X7081700Y-7581400D01*
G01X7086702Y-7576398D01*
G01X7201700Y-7576398D01*
G01X7206701Y-7581400D01*
G37*
G36*
G01X7853502Y-7187700D02*
G01X7853502Y-7315698D01*
G01X7848501Y-7320699D01*
G01X7733500Y-7320699D01*
G01X7728501Y-7315698D01*
G01X7727998Y-7274695D01*
G01X7772999Y-7274695D01*
G01X7772999Y-7229696D01*
G01X7728999Y-7229696D01*
G01X7728501Y-7187700D01*
G01X7733500Y-7182698D01*
G01X7848501Y-7182698D01*
G01X7853502Y-7187700D01*
G37*
G36*
G01X7638501Y-7187700D02*
G01X7638499Y-7229696D01*
G01X7594001Y-7229696D01*
G01X7594001Y-7274695D01*
G01X7637998Y-7274695D01*
G01X7638501Y-7315698D01*
G01X7633500Y-7320699D01*
G01X7518502Y-7320699D01*
G01X7513500Y-7315698D01*
G01X7513500Y-7187700D01*
G01X7518502Y-7182698D01*
G01X7633500Y-7182698D01*
G01X7638501Y-7187700D01*
G37*
G36*
G01X6599098Y-8446000D02*
G01X6599098Y-8318002D01*
G01X6604099Y-8313001D01*
G01X6719100Y-8313001D01*
G01X6724099Y-8318002D01*
G01X6724602Y-8359005D01*
G01X6679601Y-8359005D01*
G01X6679601Y-8404004D01*
G01X6723601Y-8404004D01*
G01X6724099Y-8446000D01*
G01X6719100Y-8451002D01*
G01X6604099Y-8451002D01*
G01X6599098Y-8446000D01*
G37*
G36*
G01X6814099Y-8446000D02*
G01X6814101Y-8404004D01*
G01X6858599Y-8404004D01*
G01X6858599Y-8359005D01*
G01X6814602Y-8359005D01*
G01X6814099Y-8318002D01*
G01X6819100Y-8313001D01*
G01X6934098Y-8313001D01*
G01X6939100Y-8318002D01*
G01X6939100Y-8446000D01*
G01X6934098Y-8451002D01*
G01X6819100Y-8451002D01*
G01X6814099Y-8446000D01*
G37*
G36*
G01X6192698Y-7506200D02*
G01X6192698Y-7378202D01*
G01X6197699Y-7373201D01*
G01X6312700Y-7373201D01*
G01X6317699Y-7378202D01*
G01X6318202Y-7419205D01*
G01X6273201Y-7419205D01*
G01X6273201Y-7464204D01*
G01X6317201Y-7464204D01*
G01X6317699Y-7506200D01*
G01X6312700Y-7511202D01*
G01X6197699Y-7511202D01*
G01X6192698Y-7506200D01*
G37*
G36*
G01X6407699Y-7506200D02*
G01X6407701Y-7464204D01*
G01X6452199Y-7464204D01*
G01X6452199Y-7419205D01*
G01X6408202Y-7419205D01*
G01X6407699Y-7378202D01*
G01X6412700Y-7373201D01*
G01X6527698Y-7373201D01*
G01X6532700Y-7378202D01*
G01X6532700Y-7506200D01*
G01X6527698Y-7511202D01*
G01X6412700Y-7511202D01*
G01X6407699Y-7506200D01*
G37*
G36*
G01X6532702Y-7581400D02*
G01X6532702Y-7709398D01*
G01X6527701Y-7714399D01*
G01X6412700Y-7714399D01*
G01X6407701Y-7709398D01*
G01X6407198Y-7668395D01*
G01X6452199Y-7668395D01*
G01X6452199Y-7623396D01*
G01X6408199Y-7623396D01*
G01X6407701Y-7581400D01*
G01X6412700Y-7576398D01*
G01X6527701Y-7576398D01*
G01X6532702Y-7581400D01*
G37*
G36*
G01X6317701Y-7581400D02*
G01X6317699Y-7623396D01*
G01X6273201Y-7623396D01*
G01X6273201Y-7668395D01*
G01X6317198Y-7668395D01*
G01X6317701Y-7709398D01*
G01X6312700Y-7714399D01*
G01X6197702Y-7714399D01*
G01X6192700Y-7709398D01*
G01X6192700Y-7581400D01*
G01X6197702Y-7576398D01*
G01X6312700Y-7576398D01*
G01X6317701Y-7581400D01*
G37*
G36*
G01X6964502Y-7187700D02*
G01X6964502Y-7315698D01*
G01X6959501Y-7320699D01*
G01X6844500Y-7320699D01*
G01X6839501Y-7315698D01*
G01X6838998Y-7274695D01*
G01X6883999Y-7274695D01*
G01X6883999Y-7229696D01*
G01X6839999Y-7229696D01*
G01X6839501Y-7187700D01*
G01X6844500Y-7182698D01*
G01X6959501Y-7182698D01*
G01X6964502Y-7187700D01*
G37*
G36*
G01X6749501Y-7187700D02*
G01X6749499Y-7229696D01*
G01X6705001Y-7229696D01*
G01X6705001Y-7274695D01*
G01X6748998Y-7274695D01*
G01X6749501Y-7315698D01*
G01X6744500Y-7320699D01*
G01X6629502Y-7320699D01*
G01X6624500Y-7315698D01*
G01X6624500Y-7187700D01*
G01X6629502Y-7182698D01*
G01X6744500Y-7182698D01*
G01X6749501Y-7187700D01*
G37*
G36*
G01X5710098Y-8446000D02*
G01X5710098Y-8318002D01*
G01X5715099Y-8313001D01*
G01X5830100Y-8313001D01*
G01X5835099Y-8318002D01*
G01X5835602Y-8359005D01*
G01X5790601Y-8359005D01*
G01X5790601Y-8404004D01*
G01X5834601Y-8404004D01*
G01X5835099Y-8446000D01*
G01X5830100Y-8451002D01*
G01X5715099Y-8451002D01*
G01X5710098Y-8446000D01*
G37*
G36*
G01X5925099Y-8446000D02*
G01X5925101Y-8404004D01*
G01X5969599Y-8404004D01*
G01X5969599Y-8359005D01*
G01X5925602Y-8359005D01*
G01X5925099Y-8318002D01*
G01X5930100Y-8313001D01*
G01X6045098Y-8313001D01*
G01X6050100Y-8318002D01*
G01X6050100Y-8446000D01*
G01X6045098Y-8451002D01*
G01X5930100Y-8451002D01*
G01X5925099Y-8446000D01*
G37*
G36*
G01X5303698Y-7506200D02*
G01X5303698Y-7378202D01*
G01X5308699Y-7373201D01*
G01X5423700Y-7373201D01*
G01X5428699Y-7378202D01*
G01X5429202Y-7419205D01*
G01X5384201Y-7419205D01*
G01X5384201Y-7464204D01*
G01X5428201Y-7464204D01*
G01X5428699Y-7506200D01*
G01X5423700Y-7511202D01*
G01X5308699Y-7511202D01*
G01X5303698Y-7506200D01*
G37*
G36*
G01X5518699Y-7506200D02*
G01X5518701Y-7464204D01*
G01X5563199Y-7464204D01*
G01X5563199Y-7419205D01*
G01X5519202Y-7419205D01*
G01X5518699Y-7378202D01*
G01X5523700Y-7373201D01*
G01X5638698Y-7373201D01*
G01X5643700Y-7378202D01*
G01X5643700Y-7506200D01*
G01X5638698Y-7511202D01*
G01X5523700Y-7511202D01*
G01X5518699Y-7506200D01*
G37*
G36*
G01X5643702Y-7581400D02*
G01X5643702Y-7709398D01*
G01X5638701Y-7714399D01*
G01X5523700Y-7714399D01*
G01X5518701Y-7709398D01*
G01X5518198Y-7668395D01*
G01X5563199Y-7668395D01*
G01X5563199Y-7623396D01*
G01X5519199Y-7623396D01*
G01X5518701Y-7581400D01*
G01X5523700Y-7576398D01*
G01X5638701Y-7576398D01*
G01X5643702Y-7581400D01*
G37*
G36*
G01X5428701Y-7581400D02*
G01X5428699Y-7623396D01*
G01X5384201Y-7623396D01*
G01X5384201Y-7668395D01*
G01X5428198Y-7668395D01*
G01X5428701Y-7709398D01*
G01X5423700Y-7714399D01*
G01X5308702Y-7714399D01*
G01X5303700Y-7709398D01*
G01X5303700Y-7581400D01*
G01X5308702Y-7576398D01*
G01X5423700Y-7576398D01*
G01X5428701Y-7581400D01*
G37*
G36*
G01X6075502Y-7187700D02*
G01X6075502Y-7315698D01*
G01X6070501Y-7320699D01*
G01X5955500Y-7320699D01*
G01X5950501Y-7315698D01*
G01X5949998Y-7274695D01*
G01X5994999Y-7274695D01*
G01X5994999Y-7229696D01*
G01X5950999Y-7229696D01*
G01X5950501Y-7187700D01*
G01X5955500Y-7182698D01*
G01X6070501Y-7182698D01*
G01X6075502Y-7187700D01*
G37*
G36*
G01X5860501Y-7187700D02*
G01X5860499Y-7229696D01*
G01X5816001Y-7229696D01*
G01X5816001Y-7274695D01*
G01X5859998Y-7274695D01*
G01X5860501Y-7315698D01*
G01X5855500Y-7320699D01*
G01X5740502Y-7320699D01*
G01X5735500Y-7315698D01*
G01X5735500Y-7187700D01*
G01X5740502Y-7182698D01*
G01X5855500Y-7182698D01*
G01X5860501Y-7187700D01*
G37*
G36*
G01X4821098Y-8446000D02*
G01X4821098Y-8318002D01*
G01X4826099Y-8313001D01*
G01X4941100Y-8313001D01*
G01X4946099Y-8318002D01*
G01X4946602Y-8359005D01*
G01X4901601Y-8359005D01*
G01X4901601Y-8404004D01*
G01X4945601Y-8404004D01*
G01X4946099Y-8446000D01*
G01X4941100Y-8451002D01*
G01X4826099Y-8451002D01*
G01X4821098Y-8446000D01*
G37*
G36*
G01X5036099Y-8446000D02*
G01X5036101Y-8404004D01*
G01X5080599Y-8404004D01*
G01X5080599Y-8359005D01*
G01X5036602Y-8359005D01*
G01X5036099Y-8318002D01*
G01X5041100Y-8313001D01*
G01X5156098Y-8313001D01*
G01X5161100Y-8318002D01*
G01X5161100Y-8446000D01*
G01X5156098Y-8451002D01*
G01X5041100Y-8451002D01*
G01X5036099Y-8446000D01*
G37*
G36*
G01X4414698Y-7506200D02*
G01X4414698Y-7378202D01*
G01X4419699Y-7373201D01*
G01X4534700Y-7373201D01*
G01X4539699Y-7378202D01*
G01X4540202Y-7419205D01*
G01X4495201Y-7419205D01*
G01X4495201Y-7464204D01*
G01X4539201Y-7464204D01*
G01X4539699Y-7506200D01*
G01X4534700Y-7511202D01*
G01X4419699Y-7511202D01*
G01X4414698Y-7506200D01*
G37*
G36*
G01X4629699Y-7506200D02*
G01X4629701Y-7464204D01*
G01X4674199Y-7464204D01*
G01X4674199Y-7419205D01*
G01X4630202Y-7419205D01*
G01X4629699Y-7378202D01*
G01X4634700Y-7373201D01*
G01X4749698Y-7373201D01*
G01X4754700Y-7378202D01*
G01X4754700Y-7506200D01*
G01X4749698Y-7511202D01*
G01X4634700Y-7511202D01*
G01X4629699Y-7506200D01*
G37*
G36*
G01X4754702Y-7581400D02*
G01X4754702Y-7709398D01*
G01X4749701Y-7714399D01*
G01X4634700Y-7714399D01*
G01X4629701Y-7709398D01*
G01X4629198Y-7668395D01*
G01X4674199Y-7668395D01*
G01X4674199Y-7623396D01*
G01X4630199Y-7623396D01*
G01X4629701Y-7581400D01*
G01X4634700Y-7576398D01*
G01X4749701Y-7576398D01*
G01X4754702Y-7581400D01*
G37*
G36*
G01X4539701Y-7581400D02*
G01X4539699Y-7623396D01*
G01X4495201Y-7623396D01*
G01X4495201Y-7668395D01*
G01X4539198Y-7668395D01*
G01X4539701Y-7709398D01*
G01X4534700Y-7714399D01*
G01X4419702Y-7714399D01*
G01X4414700Y-7709398D01*
G01X4414700Y-7581400D01*
G01X4419702Y-7576398D01*
G01X4534700Y-7576398D01*
G01X4539701Y-7581400D01*
G37*
G36*
G01X5186502Y-7187700D02*
G01X5186502Y-7315698D01*
G01X5181501Y-7320699D01*
G01X5066500Y-7320699D01*
G01X5061501Y-7315698D01*
G01X5060998Y-7274695D01*
G01X5105999Y-7274695D01*
G01X5105999Y-7229696D01*
G01X5061999Y-7229696D01*
G01X5061501Y-7187700D01*
G01X5066500Y-7182698D01*
G01X5181501Y-7182698D01*
G01X5186502Y-7187700D01*
G37*
G36*
G01X4971501Y-7187700D02*
G01X4971499Y-7229696D01*
G01X4927001Y-7229696D01*
G01X4927001Y-7274695D01*
G01X4970998Y-7274695D01*
G01X4971501Y-7315698D01*
G01X4966500Y-7320699D01*
G01X4851502Y-7320699D01*
G01X4846500Y-7315698D01*
G01X4846500Y-7187700D01*
G01X4851502Y-7182698D01*
G01X4966500Y-7182698D01*
G01X4971501Y-7187700D01*
G37*
G36*
G01X3932098Y-8446000D02*
G01X3932098Y-8318002D01*
G01X3937099Y-8313001D01*
G01X4052100Y-8313001D01*
G01X4057099Y-8318002D01*
G01X4057602Y-8359005D01*
G01X4012601Y-8359005D01*
G01X4012601Y-8404004D01*
G01X4056601Y-8404004D01*
G01X4057099Y-8446000D01*
G01X4052100Y-8451002D01*
G01X3937099Y-8451002D01*
G01X3932098Y-8446000D01*
G37*
G36*
G01X4147099Y-8446000D02*
G01X4147101Y-8404004D01*
G01X4191599Y-8404004D01*
G01X4191599Y-8359005D01*
G01X4147602Y-8359005D01*
G01X4147099Y-8318002D01*
G01X4152100Y-8313001D01*
G01X4267098Y-8313001D01*
G01X4272100Y-8318002D01*
G01X4272100Y-8446000D01*
G01X4267098Y-8451002D01*
G01X4152100Y-8451002D01*
G01X4147099Y-8446000D01*
G37*
G36*
G01X3525698Y-7506200D02*
G01X3525698Y-7378202D01*
G01X3530699Y-7373201D01*
G01X3645700Y-7373201D01*
G01X3650699Y-7378202D01*
G01X3651202Y-7419205D01*
G01X3606201Y-7419205D01*
G01X3606201Y-7464204D01*
G01X3650201Y-7464204D01*
G01X3650699Y-7506200D01*
G01X3645700Y-7511202D01*
G01X3530699Y-7511202D01*
G01X3525698Y-7506200D01*
G37*
G36*
G01X3740699Y-7506200D02*
G01X3740701Y-7464204D01*
G01X3785199Y-7464204D01*
G01X3785199Y-7419205D01*
G01X3741202Y-7419205D01*
G01X3740699Y-7378202D01*
G01X3745700Y-7373201D01*
G01X3860698Y-7373201D01*
G01X3865700Y-7378202D01*
G01X3865700Y-7506200D01*
G01X3860698Y-7511202D01*
G01X3745700Y-7511202D01*
G01X3740699Y-7506200D01*
G37*
G36*
G01X3865702Y-7581400D02*
G01X3865702Y-7709398D01*
G01X3860701Y-7714399D01*
G01X3745700Y-7714399D01*
G01X3740701Y-7709398D01*
G01X3740198Y-7668395D01*
G01X3785199Y-7668395D01*
G01X3785199Y-7623396D01*
G01X3741199Y-7623396D01*
G01X3740701Y-7581400D01*
G01X3745700Y-7576398D01*
G01X3860701Y-7576398D01*
G01X3865702Y-7581400D01*
G37*
G36*
G01X3650701Y-7581400D02*
G01X3650699Y-7623396D01*
G01X3606201Y-7623396D01*
G01X3606201Y-7668395D01*
G01X3650198Y-7668395D01*
G01X3650701Y-7709398D01*
G01X3645700Y-7714399D01*
G01X3530702Y-7714399D01*
G01X3525700Y-7709398D01*
G01X3525700Y-7581400D01*
G01X3530702Y-7576398D01*
G01X3645700Y-7576398D01*
G01X3650701Y-7581400D01*
G37*
G36*
G01X4310202Y-7187700D02*
G01X4310202Y-7315698D01*
G01X4305201Y-7320699D01*
G01X4190200Y-7320699D01*
G01X4185201Y-7315698D01*
G01X4184698Y-7274695D01*
G01X4229699Y-7274695D01*
G01X4229699Y-7229696D01*
G01X4185699Y-7229696D01*
G01X4185201Y-7187700D01*
G01X4190200Y-7182698D01*
G01X4305201Y-7182698D01*
G01X4310202Y-7187700D01*
G37*
G36*
G01X4095201Y-7187700D02*
G01X4095199Y-7229696D01*
G01X4050701Y-7229696D01*
G01X4050701Y-7274695D01*
G01X4094698Y-7274695D01*
G01X4095201Y-7315698D01*
G01X4090200Y-7320699D01*
G01X3975202Y-7320699D01*
G01X3970200Y-7315698D01*
G01X3970200Y-7187700D01*
G01X3975202Y-7182698D01*
G01X4090200Y-7182698D01*
G01X4095201Y-7187700D01*
G37*
G36*
G01X3043098Y-8446000D02*
G01X3043098Y-8318002D01*
G01X3048099Y-8313001D01*
G01X3163100Y-8313001D01*
G01X3168099Y-8318002D01*
G01X3168602Y-8359005D01*
G01X3123601Y-8359005D01*
G01X3123601Y-8404004D01*
G01X3167601Y-8404004D01*
G01X3168099Y-8446000D01*
G01X3163100Y-8451002D01*
G01X3048099Y-8451002D01*
G01X3043098Y-8446000D01*
G37*
G36*
G01X3258099Y-8446000D02*
G01X3258101Y-8404004D01*
G01X3302599Y-8404004D01*
G01X3302599Y-8359005D01*
G01X3258602Y-8359005D01*
G01X3258099Y-8318002D01*
G01X3263100Y-8313001D01*
G01X3378098Y-8313001D01*
G01X3383100Y-8318002D01*
G01X3383100Y-8446000D01*
G01X3378098Y-8451002D01*
G01X3263100Y-8451002D01*
G01X3258099Y-8446000D01*
G37*
G36*
G01X2636698Y-7506200D02*
G01X2636698Y-7378202D01*
G01X2641699Y-7373201D01*
G01X2756700Y-7373201D01*
G01X2761699Y-7378202D01*
G01X2762202Y-7419205D01*
G01X2717201Y-7419205D01*
G01X2717201Y-7464204D01*
G01X2761201Y-7464204D01*
G01X2761699Y-7506200D01*
G01X2756700Y-7511202D01*
G01X2641699Y-7511202D01*
G01X2636698Y-7506200D01*
G37*
G36*
G01X2851699Y-7506200D02*
G01X2851701Y-7464204D01*
G01X2896199Y-7464204D01*
G01X2896199Y-7419205D01*
G01X2852202Y-7419205D01*
G01X2851699Y-7378202D01*
G01X2856700Y-7373201D01*
G01X2971698Y-7373201D01*
G01X2976700Y-7378202D01*
G01X2976700Y-7506200D01*
G01X2971698Y-7511202D01*
G01X2856700Y-7511202D01*
G01X2851699Y-7506200D01*
G37*
G36*
G01X2976702Y-7581400D02*
G01X2976702Y-7709398D01*
G01X2971701Y-7714399D01*
G01X2856700Y-7714399D01*
G01X2851701Y-7709398D01*
G01X2851198Y-7668395D01*
G01X2896199Y-7668395D01*
G01X2896199Y-7623396D01*
G01X2852199Y-7623396D01*
G01X2851701Y-7581400D01*
G01X2856700Y-7576398D01*
G01X2971701Y-7576398D01*
G01X2976702Y-7581400D01*
G37*
G36*
G01X2761701Y-7581400D02*
G01X2761699Y-7623396D01*
G01X2717201Y-7623396D01*
G01X2717201Y-7668395D01*
G01X2761198Y-7668395D01*
G01X2761701Y-7709398D01*
G01X2756700Y-7714399D01*
G01X2641702Y-7714399D01*
G01X2636700Y-7709398D01*
G01X2636700Y-7581400D01*
G01X2641702Y-7576398D01*
G01X2756700Y-7576398D01*
G01X2761701Y-7581400D01*
G37*
G36*
G01X3408502Y-7187700D02*
G01X3408502Y-7315698D01*
G01X3403501Y-7320699D01*
G01X3288500Y-7320699D01*
G01X3283501Y-7315698D01*
G01X3282998Y-7274695D01*
G01X3327999Y-7274695D01*
G01X3327999Y-7229696D01*
G01X3283999Y-7229696D01*
G01X3283501Y-7187700D01*
G01X3288500Y-7182698D01*
G01X3403501Y-7182698D01*
G01X3408502Y-7187700D01*
G37*
G36*
G01X3193501Y-7187700D02*
G01X3193499Y-7229696D01*
G01X3149001Y-7229696D01*
G01X3149001Y-7274695D01*
G01X3192998Y-7274695D01*
G01X3193501Y-7315698D01*
G01X3188500Y-7320699D01*
G01X3073502Y-7320699D01*
G01X3068500Y-7315698D01*
G01X3068500Y-7187700D01*
G01X3073502Y-7182698D01*
G01X3188500Y-7182698D01*
G01X3193501Y-7187700D01*
G37*
G36*
G01X2154098Y-8446000D02*
G01X2154098Y-8318002D01*
G01X2159099Y-8313001D01*
G01X2274100Y-8313001D01*
G01X2279099Y-8318002D01*
G01X2279602Y-8359005D01*
G01X2234601Y-8359005D01*
G01X2234601Y-8404004D01*
G01X2278601Y-8404004D01*
G01X2279099Y-8446000D01*
G01X2274100Y-8451002D01*
G01X2159099Y-8451002D01*
G01X2154098Y-8446000D01*
G37*
G36*
G01X2369099Y-8446000D02*
G01X2369101Y-8404004D01*
G01X2413599Y-8404004D01*
G01X2413599Y-8359005D01*
G01X2369602Y-8359005D01*
G01X2369099Y-8318002D01*
G01X2374100Y-8313001D01*
G01X2489098Y-8313001D01*
G01X2494100Y-8318002D01*
G01X2494100Y-8446000D01*
G01X2489098Y-8451002D01*
G01X2374100Y-8451002D01*
G01X2369099Y-8446000D01*
G37*
G36*
G01X1747698Y-7506200D02*
G01X1747698Y-7378202D01*
G01X1752699Y-7373201D01*
G01X1867700Y-7373201D01*
G01X1872699Y-7378202D01*
G01X1873202Y-7419205D01*
G01X1828201Y-7419205D01*
G01X1828201Y-7464204D01*
G01X1872201Y-7464204D01*
G01X1872699Y-7506200D01*
G01X1867700Y-7511202D01*
G01X1752699Y-7511202D01*
G01X1747698Y-7506200D01*
G37*
G36*
G01X1962699Y-7506200D02*
G01X1962701Y-7464204D01*
G01X2007199Y-7464204D01*
G01X2007199Y-7419205D01*
G01X1963202Y-7419205D01*
G01X1962699Y-7378202D01*
G01X1967700Y-7373201D01*
G01X2082698Y-7373201D01*
G01X2087700Y-7378202D01*
G01X2087700Y-7506200D01*
G01X2082698Y-7511202D01*
G01X1967700Y-7511202D01*
G01X1962699Y-7506200D01*
G37*
G36*
G01X2087702Y-7581400D02*
G01X2087702Y-7709398D01*
G01X2082701Y-7714399D01*
G01X1967700Y-7714399D01*
G01X1962701Y-7709398D01*
G01X1962198Y-7668395D01*
G01X2007199Y-7668395D01*
G01X2007199Y-7623396D01*
G01X1963199Y-7623396D01*
G01X1962701Y-7581400D01*
G01X1967700Y-7576398D01*
G01X2082701Y-7576398D01*
G01X2087702Y-7581400D01*
G37*
G36*
G01X1872701Y-7581400D02*
G01X1872699Y-7623396D01*
G01X1828201Y-7623396D01*
G01X1828201Y-7668395D01*
G01X1872198Y-7668395D01*
G01X1872701Y-7709398D01*
G01X1867700Y-7714399D01*
G01X1752702Y-7714399D01*
G01X1747700Y-7709398D01*
G01X1747700Y-7581400D01*
G01X1752702Y-7576398D01*
G01X1867700Y-7576398D01*
G01X1872701Y-7581400D01*
G37*
G36*
G01X2519502Y-7187700D02*
G01X2519502Y-7315698D01*
G01X2514501Y-7320699D01*
G01X2399500Y-7320699D01*
G01X2394501Y-7315698D01*
G01X2393998Y-7274695D01*
G01X2438999Y-7274695D01*
G01X2438999Y-7229696D01*
G01X2394999Y-7229696D01*
G01X2394501Y-7187700D01*
G01X2399500Y-7182698D01*
G01X2514501Y-7182698D01*
G01X2519502Y-7187700D01*
G37*
G36*
G01X2304501Y-7187700D02*
G01X2304499Y-7229696D01*
G01X2260001Y-7229696D01*
G01X2260001Y-7274695D01*
G01X2303998Y-7274695D01*
G01X2304501Y-7315698D01*
G01X2299500Y-7320699D01*
G01X2184502Y-7320699D01*
G01X2179500Y-7315698D01*
G01X2179500Y-7187700D01*
G01X2184502Y-7182698D01*
G01X2299500Y-7182698D01*
G01X2304501Y-7187700D01*
G37*
G36*
G01X1260300Y-8444400D02*
G01X1260300Y-8316402D01*
G01X1265301Y-8311401D01*
G01X1380302Y-8311401D01*
G01X1385301Y-8316402D01*
G01X1385804Y-8357405D01*
G01X1340803Y-8357405D01*
G01X1340803Y-8402404D01*
G01X1384803Y-8402404D01*
G01X1385301Y-8444400D01*
G01X1380302Y-8449402D01*
G01X1265301Y-8449402D01*
G01X1260300Y-8444400D01*
G37*
G36*
G01X1475301Y-8444400D02*
G01X1475303Y-8402404D01*
G01X1519802Y-8402404D01*
G01X1519802Y-8357405D01*
G01X1475804Y-8357405D01*
G01X1475301Y-8316402D01*
G01X1480302Y-8311401D01*
G01X1595301Y-8311401D01*
G01X1600302Y-8316402D01*
G01X1600302Y-8444400D01*
G01X1595301Y-8449402D01*
G01X1480302Y-8449402D01*
G01X1475301Y-8444400D01*
G37*
G36*
G01X858698Y-7506200D02*
G01X858698Y-7378202D01*
G01X863699Y-7373201D01*
G01X978700Y-7373201D01*
G01X983699Y-7378202D01*
G01X984202Y-7419205D01*
G01X939201Y-7419205D01*
G01X939201Y-7464204D01*
G01X983201Y-7464204D01*
G01X983699Y-7506200D01*
G01X978700Y-7511202D01*
G01X863699Y-7511202D01*
G01X858698Y-7506200D01*
G37*
G36*
G01X1073699Y-7506200D02*
G01X1073701Y-7464204D01*
G01X1118199Y-7464204D01*
G01X1118199Y-7419205D01*
G01X1074202Y-7419205D01*
G01X1073699Y-7378202D01*
G01X1078700Y-7373201D01*
G01X1193698Y-7373201D01*
G01X1198700Y-7378202D01*
G01X1198700Y-7506200D01*
G01X1193698Y-7511202D01*
G01X1078700Y-7511202D01*
G01X1073699Y-7506200D01*
G37*
G36*
G01X1198702Y-7581400D02*
G01X1198702Y-7709398D01*
G01X1193701Y-7714399D01*
G01X1078700Y-7714399D01*
G01X1073701Y-7709398D01*
G01X1073198Y-7668395D01*
G01X1118199Y-7668395D01*
G01X1118199Y-7623396D01*
G01X1074199Y-7623396D01*
G01X1073701Y-7581400D01*
G01X1078700Y-7576398D01*
G01X1193701Y-7576398D01*
G01X1198702Y-7581400D01*
G37*
G36*
G01X983701Y-7581400D02*
G01X983699Y-7623396D01*
G01X939201Y-7623396D01*
G01X939201Y-7668395D01*
G01X983198Y-7668395D01*
G01X983701Y-7709398D01*
G01X978700Y-7714399D01*
G01X863702Y-7714399D01*
G01X858700Y-7709398D01*
G01X858700Y-7581400D01*
G01X863702Y-7576398D01*
G01X978700Y-7576398D01*
G01X983701Y-7581400D01*
G37*
G36*
G01X1643202Y-7187700D02*
G01X1643202Y-7315698D01*
G01X1638201Y-7320699D01*
G01X1523200Y-7320699D01*
G01X1518201Y-7315698D01*
G01X1517698Y-7274695D01*
G01X1562699Y-7274695D01*
G01X1562699Y-7229696D01*
G01X1518699Y-7229696D01*
G01X1518201Y-7187700D01*
G01X1523200Y-7182698D01*
G01X1638201Y-7182698D01*
G01X1643202Y-7187700D01*
G37*
G36*
G01X1428201Y-7187700D02*
G01X1428199Y-7229696D01*
G01X1383701Y-7229696D01*
G01X1383701Y-7274695D01*
G01X1427698Y-7274695D01*
G01X1428201Y-7315698D01*
G01X1423200Y-7320699D01*
G01X1308202Y-7320699D01*
G01X1303200Y-7315698D01*
G01X1303200Y-7187700D01*
G01X1308202Y-7182698D01*
G01X1423200Y-7182698D01*
G01X1428201Y-7187700D01*
G37*

G04 Pad Start*
G54D10*
G01X9257192Y-2942128D03*
G01X9130192Y-2942128D03*
G01X9003192Y-2942128D03*
G01X8876192Y-2942128D03*
G01X8749192Y-2942128D03*
G01X8622192Y-2942128D03*
G01X8495192Y-2942128D03*
G01X8368192Y-2942128D03*
G01X8241192Y-2942128D03*
G01X8114192Y-2942128D03*
G01X7987192Y-2942128D03*
G01X7860192Y-2942128D03*
G01X7733192Y-2942128D03*
G01X7606192Y-2942128D03*
G54D11*
G01X7456687Y-3270652D03*
G01X7456687Y-3397652D03*
G01X7456687Y-3524652D03*
G01X7456687Y-3651652D03*
G01X7456687Y-3778652D03*
G01X7456687Y-3905652D03*
G01X7456687Y-4032652D03*
G01X7456687Y-4159652D03*
G01X7456687Y-4286652D03*
G01X7456687Y-4413652D03*
G54D10*
G01X7606192Y-4742150D03*
G01X7733192Y-4742150D03*
G01X7860192Y-4742150D03*
G01X7987192Y-4742150D03*
G01X8114192Y-4742150D03*
G01X8241192Y-4742150D03*
G01X8368192Y-4742150D03*
G01X8495192Y-4742150D03*
G01X8622192Y-4742150D03*
G01X8749192Y-4742150D03*
G01X8876192Y-4742150D03*
G01X9003192Y-4742150D03*
G01X9130192Y-4742150D03*
G01X9257192Y-4742150D03*
G54D12*
G01X8489096Y-3692114D03*
G01X8489096Y-3552135D03*
G01X8489096Y-3832144D03*
G01X8629101Y-3832144D03*
G01X8629101Y-3692139D03*
G01X8629101Y-3552135D03*
G01X8349091Y-3552135D03*
G01X8349091Y-3692139D03*
G01X8349091Y-3832144D03*
G54D13*
G01X2599982Y-2049996D03*
G01X1700009Y-2049996D03*
G01X2599982Y-3988092D03*
G01X1700009Y-3988092D03*
G54D14*
G01X3636289Y-3987800D03*
G01X3196311Y-3987800D03*
G01X406400Y-2582189D03*
G01X406400Y-2142211D03*
G54D15*
G01X3199994Y-2499995D03*
G01X3199994Y-3499993D03*
G54D16*
G01X2270506Y-3090494D03*
G01X2270506Y-2963494D03*
G01X2270506Y-2836494D03*
G01X2270506Y-2709494D03*
G01X1729486Y-3090494D03*
G01X1729486Y-2963494D03*
G01X1729486Y-2836494D03*
G01X1729486Y-2709494D03*
G54D17*
G01X4389978Y-3125635D03*
G01X4389978Y-3355632D03*
G01X4389978Y-3585629D03*
G54D19*
G01X4983970Y-3355632D03*
G54D20*
G01X1533563Y-5104994D03*
G01X1533563Y-5294986D03*
G01X1753832Y-5199990D03*
G54D16*
G01X2823210Y-5384800D03*
G01X2823210Y-5257800D03*
G01X2823210Y-5130800D03*
G01X2823210Y-5003800D03*
G01X2282190Y-5384800D03*
G01X2282190Y-5257800D03*
G01X2282190Y-5130800D03*
G01X2282190Y-5003800D03*
G54D21*
G01X7002490Y-5999988D03*
G54D22*
G01X4797483Y-5999988D03*
G54D23*
G01X3074962Y-5655488D03*
G01X3074962Y-5782488D03*
G01X3074962Y-5909488D03*
G01X3074962Y-6036488D03*
G01X3074962Y-6163488D03*
G01X3074962Y-6290488D03*
G01X3074962Y-6417488D03*
G01X3074962Y-6544488D03*
G01X4025024Y-5655488D03*
G01X4025024Y-5782488D03*
G01X4025024Y-5909488D03*
G01X4025024Y-6036488D03*
G01X4025024Y-6163488D03*
G01X4025024Y-6290488D03*
G01X4025024Y-6417488D03*
G01X4025024Y-6544488D03*
G54D24*
G01X9085301Y-8562800D03*
G01X9685299Y-8562800D03*
G01X9085301Y-8937800D03*
G01X9685299Y-8937800D03*
G01X9087282Y-7260085D03*
G01X9687281Y-7260085D03*
G01X9087282Y-7635085D03*
G01X9687281Y-7635085D03*
G54D25*
G01X7150303Y-7886700D03*
G01X7150303Y-8140700D03*
G01X7810297Y-8140700D03*
G01X7810297Y-7886700D03*
G01X6261303Y-7886700D03*
G01X6261303Y-8140700D03*
G01X6921297Y-8140700D03*
G01X6921297Y-7886700D03*
G01X5372303Y-7886700D03*
G01X5372303Y-8140700D03*
G01X6032297Y-8140700D03*
G01X6032297Y-7886700D03*
G01X4483303Y-7886700D03*
G01X4483303Y-8140700D03*
G01X5143297Y-8140700D03*
G01X5143297Y-7886700D03*
G01X3594303Y-7886700D03*
G01X3594303Y-8140700D03*
G01X4254297Y-8140700D03*
G01X4254297Y-7886700D03*
G01X2705303Y-7886700D03*
G01X2705303Y-8140700D03*
G01X3365297Y-8140700D03*
G01X3365297Y-7886700D03*
G01X1816303Y-7886700D03*
G01X1816303Y-8140700D03*
G01X2476297Y-8140700D03*
G01X2476297Y-7886700D03*
G01X927303Y-7886700D03*
G01X927303Y-8140700D03*
G01X1587297Y-8140700D03*
G01X1587297Y-7886700D03*
G54D26*
G01X7753096Y-8563966D03*
G01X7563104Y-8563966D03*
G01X7658100Y-8784234D03*
G54D20*
G01X7586066Y-7448804D03*
G01X7586066Y-7638796D03*
G01X7806334Y-7543800D03*
G54D26*
G01X6864096Y-8563966D03*
G01X6674104Y-8563966D03*
G01X6769100Y-8784234D03*
G54D20*
G01X6697066Y-7448804D03*
G01X6697066Y-7638796D03*
G01X6917334Y-7543800D03*
G54D26*
G01X5975096Y-8563966D03*
G01X5785104Y-8563966D03*
G01X5880100Y-8784234D03*
G54D20*
G01X5808066Y-7448804D03*
G01X5808066Y-7638796D03*
G01X6028334Y-7543800D03*
G54D26*
G01X5086096Y-8563966D03*
G01X4896104Y-8563966D03*
G01X4991100Y-8784234D03*
G54D20*
G01X4919066Y-7448804D03*
G01X4919066Y-7638796D03*
G01X5139334Y-7543800D03*
G54D26*
G01X4197096Y-8563966D03*
G01X4007104Y-8563966D03*
G01X4102100Y-8784234D03*
G54D20*
G01X4030066Y-7448804D03*
G01X4030066Y-7638796D03*
G01X4250334Y-7543800D03*
G54D26*
G01X3308096Y-8563966D03*
G01X3118104Y-8563966D03*
G01X3213100Y-8784234D03*
G54D20*
G01X3141066Y-7448804D03*
G01X3141066Y-7638796D03*
G01X3361334Y-7543800D03*
G54D26*
G01X2419096Y-8563966D03*
G01X2229104Y-8563966D03*
G01X2324100Y-8784234D03*
G54D20*
G01X2252066Y-7448804D03*
G01X2252066Y-7638796D03*
G01X2472334Y-7543800D03*
G54D26*
G01X1530096Y-8563966D03*
G01X1340104Y-8563966D03*
G01X1435100Y-8784234D03*
G54D20*
G01X1375766Y-7448804D03*
G01X1375766Y-7638796D03*
G01X1596034Y-7543800D03*
G54D27*
G01X7146354Y-7251713D03*
G01X7306247Y-7251687D03*
G01X6257354Y-7251713D03*
G01X6417247Y-7251687D03*
G01X5368354Y-7251713D03*
G01X5528247Y-7251687D03*
G01X4479354Y-7251713D03*
G01X4639247Y-7251687D03*
G01X3590354Y-7251713D03*
G01X3750247Y-7251687D03*
G01X2701354Y-7251713D03*
G01X2861247Y-7251687D03*
G01X1812354Y-7251713D03*
G01X1972247Y-7251687D03*
G01X923354Y-7251713D03*
G01X1083247Y-7251687D03*
G54D28*
G01X7277100Y-8781699D03*
G01X7277100Y-8388701D03*
G01X6388100Y-8781699D03*
G01X6388100Y-8388701D03*
G01X5499100Y-8781699D03*
G01X5499100Y-8388701D03*
G01X4610100Y-8781699D03*
G01X4610100Y-8388701D03*
G01X3721100Y-8781699D03*
G01X3721100Y-8388701D03*
G01X2832100Y-8781699D03*
G01X2832100Y-8388701D03*
G01X1943100Y-8781699D03*
G01X1943100Y-8388701D03*
G01X1061703Y-8780604D03*
G01X1061703Y-8387605D03*
G04 Pad End*

M02*

