;TYPE=PLATED
;Layer: PTH_Through_Via
;EasyEDA Pro v2.2.40.8, 2025-08-06 11:59:20
;Gerber Generator version 0.3
M48
METRIC,LZ,0000.00000
;Hole size 1 = 0.30500 METRIC
T01C0.30500
%
G05
G90
T01
X92.95139Y-25.59439
X92.583Y-49.022
X89.67864Y-85.55863
X89.68181Y-72.57085
X72.898Y-32.639
X9.27303Y-80.391
X12.573Y-85.598
X18.161Y-80.391
X27.051Y-80.391
X35.941Y-80.391
X44.831Y-80.391
X53.721Y-80.391
X62.611Y-80.391
X71.501Y-80.391
X11.938Y-72.517
X20.828Y-72.517
X29.718Y-72.517
X38.608Y-72.517
X47.498Y-72.517
X56.388Y-72.517
X65.278Y-72.517
X74.168Y-72.517
X21.463Y-85.598
X30.353Y-85.598
X39.243Y-85.598
X48.133Y-85.598
X57.023Y-85.598
X65.913Y-85.598
X74.803Y-85.598
X30.175Y-12.10299
X42.672Y-12.065
X55.245Y-12.065
X67.691Y-12.065
X15.748Y-30.861
X19.304Y-33.147
X14.224Y-39.878
X14.224Y-20.447
X15.748Y-29.591
X15.748Y-28.321
X15.748Y-27.051
X24.257Y-27.051
X18.669Y-54.864
X18.542Y-51.943
X21.336Y-50.038
X62.889Y-58.158
X62.889Y-48.379
X60.46Y-58.134
X60.46Y-48.371
X58.023Y-58.134
X58.023Y-48.363
X55.53939Y-57.92838
X55.5705Y-48.387
X84.193Y-57.904
X84.193Y-49.276
X82.423Y-57.904
X82.423Y-49.276
X80.653Y-57.904
X80.653Y-49.276
X72.4379Y-59.99988
X42.926Y-62.16553
X28.067Y-61.214
X90.043Y-34.917
X90.043Y-31.242
X43.95991Y-30.08694
X45.86491Y-27.03894
X39.51491Y-32.49993
X80.11668Y-24.9809
X97.663Y-25.019
X86.99983Y-63.373
X86.23783Y-55.372
X90.94734Y-24.99995
X86.36Y-34.544
X84.836Y-34.544
X83.439Y-34.544
X82.55Y-36.957
X87.249Y-36.957
X86.36Y-39.243
X84.836Y-39.243
X83.439Y-39.243
X82.55Y-35.56
X87.249Y-35.56
X87.249Y-38.354
X82.59322Y-38.32144
X69.977Y-57.531
X67.52849Y-59.99988
X69.977Y-62.484
X44.323Y-60.706
X26.67Y-59.817
X21.54087Y-58.10608
X22.86Y-59.563
X44.50153Y-28.55632
X40.90468Y-31.11868
X79.756Y-23.495
X95.885Y-23.622
X17.018Y-38.481
X17.018Y-41.275
X19.88177Y-39.88092
X37.99992Y-39.87292
X36.322Y-41.783
X17.018Y-19.05
X17.018Y-21.971
X19.85836Y-20.49996
M30