G04 Layer: TopLayer*
G04 EasyEDA Pro v2.2.40.8, 2025-08-06 11:59:20*
G04 Gerber Generator version 0.3*
G04 Scale: 100 percent, Rotated: No, Reflected: No*
G04 Dimensions in millimeters*
G04 Leading zeros omitted, absolute positions, 4 integers and 5 decimals*
G04 Generated by one-click*
%FSLAX45Y45*%
%MOMM*%
%ADD10R,1.41X1.35001*%
%ADD11R,0.95001X2.1*%
%ADD12R,2.1X0.95001*%
%ADD13R,0.9X0.9*%
%ADD14C,2.2*%
%ADD15R,4.49999X1.65001*%
%ADD16R,1.35001X1.41*%
%ADD17R,2.0X2.0*%
%ADD18R,3.5003X2.99999*%
%ADD19R,3.49999X2.99999*%
%ADD20O,1.95021X0.5684*%
%ADD21R,2.49999X1.1*%
%ADD22R,2.34X3.59999*%
%ADD23R,1.03749X0.532*%
%ADD24R,1.13254X1.37701*%
%ADD25R,1.37701X1.13254*%
%ADD26R,3.79999X3.79999*%
%ADD27R,4.29999X2.79999*%
%ADD28C,2.0*%
%ADD29O,2.4005X0.57399*%
%ADD30R,1.0X0.75001*%
%ADD31R,1.7X1.7*%
%ADD32C,1.7*%
%ADD33R,1.7X0.95001*%
%ADD34R,0.532X1.03749*%
%ADD35R,0.8X0.8*%
%ADD36R,1.68001X1.51999*%
%ADD37C,0.61*%
%ADD38C,0.254*%
%ADD39C,0.508*%
G75*


G04 Pad Start*
G54D10*
G01X9095140Y-2686439D03*
G01X9295139Y-2686439D03*
G54D11*
G01X9257192Y-2942128D03*
G01X9130192Y-2942128D03*
G01X9003192Y-2942128D03*
G01X8876192Y-2942128D03*
G01X8749192Y-2942128D03*
G01X8622192Y-2942128D03*
G01X8495192Y-2942128D03*
G01X8368192Y-2942128D03*
G01X8241192Y-2942128D03*
G01X8114192Y-2942128D03*
G01X7987192Y-2942128D03*
G01X7860192Y-2942128D03*
G01X7733192Y-2942128D03*
G01X7606192Y-2942128D03*
G54D12*
G01X7456687Y-3270652D03*
G01X7456687Y-3397652D03*
G01X7456687Y-3524652D03*
G01X7456687Y-3651652D03*
G01X7456687Y-3778652D03*
G01X7456687Y-3905652D03*
G01X7456687Y-4032652D03*
G01X7456687Y-4159652D03*
G01X7456687Y-4286652D03*
G01X7456687Y-4413652D03*
G54D11*
G01X7606192Y-4742150D03*
G01X7733192Y-4742150D03*
G01X7860192Y-4742150D03*
G01X7987192Y-4742150D03*
G01X8114192Y-4742150D03*
G01X8241192Y-4742150D03*
G01X8368192Y-4742150D03*
G01X8495192Y-4742150D03*
G01X8622192Y-4742150D03*
G01X8749192Y-4742150D03*
G01X8876192Y-4742150D03*
G01X9003192Y-4742150D03*
G01X9130192Y-4742150D03*
G01X9257192Y-4742150D03*
G54D13*
G01X8489096Y-3692114D03*
G01X8489096Y-3552135D03*
G01X8489096Y-3832144D03*
G01X8629101Y-3832144D03*
G01X8629101Y-3692139D03*
G01X8629101Y-3552135D03*
G01X8349091Y-3552135D03*
G01X8349091Y-3692139D03*
G01X8349091Y-3832144D03*
G54D14*
G01X1064197Y-399999D03*
G01X1445197Y-399999D03*
G01X1914195Y-399999D03*
G01X2295195Y-399999D03*
G54D15*
G01X2599982Y-2049996D03*
G01X1700009Y-2049996D03*
G01X2599982Y-3988092D03*
G01X1700009Y-3988092D03*
G54D10*
G01X2275396Y-3313493D03*
G01X2075396Y-3313493D03*
G54D16*
G01X4086972Y-3455632D03*
G01X4086972Y-3255632D03*
G54D10*
G01X4786972Y-2855632D03*
G01X4586973Y-2855632D03*
G54D17*
G01X3636289Y-3987800D03*
G01X3196311Y-3987800D03*
G01X406400Y-2582189D03*
G01X406400Y-2142211D03*
G54D19*
G01X3199994Y-2499995D03*
G01X3199994Y-3499993D03*
G54D14*
G01X399999Y-3390494D03*
G01X399999Y-3009494D03*
G54D20*
G01X2270506Y-3090494D03*
G01X2270506Y-2963494D03*
G01X2270506Y-2836494D03*
G01X2270506Y-2709494D03*
G01X1729486Y-3090494D03*
G01X1729486Y-2963494D03*
G01X1729486Y-2836494D03*
G01X1729486Y-2709494D03*
G54D21*
G01X4389978Y-3125635D03*
G01X4389978Y-3355632D03*
G01X4389978Y-3585629D03*
G54D22*
G01X4983970Y-3355632D03*
G54D16*
G01X2287295Y-5612689D03*
G01X2287295Y-5812688D03*
G54D23*
G01X1533563Y-5104994D03*
G01X1533563Y-5294986D03*
G01X1753832Y-5199990D03*
G54D14*
G01X399999Y-5390490D03*
G01X399999Y-5009490D03*
G54D24*
G01X1743697Y-5487289D03*
G01X1543698Y-5487289D03*
G01X1543698Y-4912690D03*
G01X1743697Y-4912690D03*
G54D25*
G01X1993900Y-5307000D03*
G01X1993900Y-5107000D03*
G54D20*
G01X2823210Y-5384800D03*
G01X2823210Y-5257800D03*
G01X2823210Y-5130800D03*
G01X2823210Y-5003800D03*
G01X2282190Y-5384800D03*
G01X2282190Y-5257800D03*
G01X2282190Y-5130800D03*
G01X2282190Y-5003800D03*
G54D14*
G01X399999Y-4440491D03*
G01X399999Y-4059491D03*
G54D26*
G01X7002490Y-5999988D03*
G54D27*
G01X4797483Y-5999988D03*
G54D16*
G01X4292600Y-5869000D03*
G01X4292600Y-6069000D03*
G01X2806700Y-5780100D03*
G01X2806700Y-5980100D03*
G54D28*
G01X5153990Y-399999D03*
G01X4772990Y-399999D03*
G01X4391990Y-399999D03*
G01X6403988Y-399999D03*
G01X6022988Y-399999D03*
G01X5641988Y-399999D03*
G01X7653985Y-399999D03*
G01X7272985Y-399999D03*
G01X6891985Y-399999D03*
G54D25*
G01X8623300Y-5243500D03*
G01X8623300Y-5043500D03*
G01X9004300Y-5243500D03*
G01X9004300Y-5043500D03*
G54D29*
G01X3074962Y-5655488D03*
G01X3074962Y-5782488D03*
G01X3074962Y-5909488D03*
G01X3074962Y-6036488D03*
G01X3074962Y-6163488D03*
G01X3074962Y-6290488D03*
G01X3074962Y-6417488D03*
G01X3074962Y-6544488D03*
G01X4025024Y-5655488D03*
G01X4025024Y-5782488D03*
G01X4025024Y-5909488D03*
G01X4025024Y-6036488D03*
G01X4025024Y-6163488D03*
G01X4025024Y-6290488D03*
G01X4025024Y-6417488D03*
G01X4025024Y-6544488D03*
G54D25*
G01X8864600Y-8939200D03*
G01X8864600Y-8739200D03*
G01X8877300Y-7631100D03*
G01X8877300Y-7431100D03*
G54D30*
G01X9085301Y-8562800D03*
G01X9685299Y-8562800D03*
G01X9085301Y-8937800D03*
G01X9685299Y-8937800D03*
G01X9087282Y-7260085D03*
G01X9687281Y-7260085D03*
G01X9087282Y-7635085D03*
G01X9687281Y-7635085D03*
G54D31*
G01X9030983Y-399999D03*
G54D32*
G01X8776983Y-399999D03*
G01X8522983Y-399999D03*
G01X8268983Y-399999D03*
G54D31*
G01X8349983Y-7880985D03*
G54D32*
G01X8349983Y-7626985D03*
G01X8349983Y-7372985D03*
G01X8349983Y-7118985D03*
G54D24*
G01X5272989Y-1349997D03*
G01X5072990Y-1349997D03*
G01X4872990Y-1349997D03*
G01X4672990Y-1349997D03*
G01X4472991Y-1349997D03*
G01X4272991Y-1349997D03*
G01X6122988Y-1349997D03*
G01X5922988Y-1349997D03*
G01X5722988Y-1349997D03*
G01X5522989Y-1349997D03*
G01X7372985Y-1349997D03*
G01X7172985Y-1349997D03*
G01X6972986Y-1349997D03*
G01X6772986Y-1349997D03*
G54D28*
G01X3903993Y-399999D03*
G01X3522993Y-399999D03*
G01X3141993Y-399999D03*
G54D24*
G01X3622993Y-1349997D03*
G01X3422993Y-1349997D03*
G01X3222993Y-1349997D03*
G01X3022994Y-1349997D03*
G01X4024592Y-1349997D03*
G01X3824592Y-1349997D03*
G01X6524587Y-1349997D03*
G01X6324587Y-1349997D03*
G01X7774584Y-1349997D03*
G01X7574585Y-1349997D03*
G54D33*
G01X7150303Y-7886700D03*
G01X7150303Y-8140700D03*
G01X7810297Y-8140700D03*
G01X7810297Y-7886700D03*
G01X6261303Y-7886700D03*
G01X6261303Y-8140700D03*
G01X6921297Y-8140700D03*
G01X6921297Y-7886700D03*
G01X5372303Y-7886700D03*
G01X5372303Y-8140700D03*
G01X6032297Y-8140700D03*
G01X6032297Y-7886700D03*
G01X4483303Y-7886700D03*
G01X4483303Y-8140700D03*
G01X5143297Y-8140700D03*
G01X5143297Y-7886700D03*
G01X3594303Y-7886700D03*
G01X3594303Y-8140700D03*
G01X4254297Y-8140700D03*
G01X4254297Y-7886700D03*
G01X2705303Y-7886700D03*
G01X2705303Y-8140700D03*
G01X3365297Y-8140700D03*
G01X3365297Y-7886700D03*
G01X1816303Y-7886700D03*
G01X1816303Y-8140700D03*
G01X2476297Y-8140700D03*
G01X2476297Y-7886700D03*
G01X927303Y-7886700D03*
G01X927303Y-8140700D03*
G01X1587297Y-8140700D03*
G01X1587297Y-7886700D03*
G54D24*
G01X7758100Y-8382000D03*
G01X7558100Y-8382000D03*
G01X7351700Y-7442200D03*
G01X7151700Y-7442200D03*
G01X7151700Y-7645400D03*
G01X7351700Y-7645400D03*
G01X7583500Y-7251700D03*
G01X7783500Y-7251700D03*
G01X6869100Y-8382000D03*
G01X6669100Y-8382000D03*
G01X6462700Y-7442200D03*
G01X6262700Y-7442200D03*
G01X6262700Y-7645400D03*
G01X6462700Y-7645400D03*
G01X6694500Y-7251700D03*
G01X6894500Y-7251700D03*
G01X5980100Y-8382000D03*
G01X5780100Y-8382000D03*
G01X5573700Y-7442200D03*
G01X5373700Y-7442200D03*
G01X5373700Y-7645400D03*
G01X5573700Y-7645400D03*
G01X5805500Y-7251700D03*
G01X6005500Y-7251700D03*
G01X5091100Y-8382000D03*
G01X4891100Y-8382000D03*
G01X4684700Y-7442200D03*
G01X4484700Y-7442200D03*
G01X4484700Y-7645400D03*
G01X4684700Y-7645400D03*
G01X4916500Y-7251700D03*
G01X5116500Y-7251700D03*
G01X4202100Y-8382000D03*
G01X4002100Y-8382000D03*
G01X3795700Y-7442200D03*
G01X3595700Y-7442200D03*
G01X3595700Y-7645400D03*
G01X3795700Y-7645400D03*
G01X4040200Y-7251700D03*
G01X4240200Y-7251700D03*
G01X3313100Y-8382000D03*
G01X3113100Y-8382000D03*
G01X2906700Y-7442200D03*
G01X2706700Y-7442200D03*
G01X2706700Y-7645400D03*
G01X2906700Y-7645400D03*
G01X3138500Y-7251700D03*
G01X3338500Y-7251700D03*
G01X2424100Y-8382000D03*
G01X2224100Y-8382000D03*
G01X2017700Y-7442200D03*
G01X1817700Y-7442200D03*
G01X1817700Y-7645400D03*
G01X2017700Y-7645400D03*
G01X2249500Y-7251700D03*
G01X2449500Y-7251700D03*
G01X1530302Y-8380400D03*
G01X1330302Y-8380400D03*
G01X1128700Y-7442200D03*
G01X928700Y-7442200D03*
G01X928700Y-7645400D03*
G01X1128700Y-7645400D03*
G01X1373200Y-7251700D03*
G01X1573200Y-7251700D03*
G54D34*
G01X7753096Y-8563966D03*
G01X7563104Y-8563966D03*
G01X7658100Y-8784234D03*
G54D23*
G01X7586066Y-7448804D03*
G01X7586066Y-7638796D03*
G01X7806334Y-7543800D03*
G54D34*
G01X6864096Y-8563966D03*
G01X6674104Y-8563966D03*
G01X6769100Y-8784234D03*
G54D23*
G01X6697066Y-7448804D03*
G01X6697066Y-7638796D03*
G01X6917334Y-7543800D03*
G54D34*
G01X5975096Y-8563966D03*
G01X5785104Y-8563966D03*
G01X5880100Y-8784234D03*
G54D23*
G01X5808066Y-7448804D03*
G01X5808066Y-7638796D03*
G01X6028334Y-7543800D03*
G54D34*
G01X5086096Y-8563966D03*
G01X4896104Y-8563966D03*
G01X4991100Y-8784234D03*
G54D23*
G01X4919066Y-7448804D03*
G01X4919066Y-7638796D03*
G01X5139334Y-7543800D03*
G54D34*
G01X4197096Y-8563966D03*
G01X4007104Y-8563966D03*
G01X4102100Y-8784234D03*
G54D23*
G01X4030066Y-7448804D03*
G01X4030066Y-7638796D03*
G01X4250334Y-7543800D03*
G54D34*
G01X3308096Y-8563966D03*
G01X3118104Y-8563966D03*
G01X3213100Y-8784234D03*
G54D23*
G01X3141066Y-7448804D03*
G01X3141066Y-7638796D03*
G01X3361334Y-7543800D03*
G54D34*
G01X2419096Y-8563966D03*
G01X2229104Y-8563966D03*
G01X2324100Y-8784234D03*
G54D23*
G01X2252066Y-7448804D03*
G01X2252066Y-7638796D03*
G01X2472334Y-7543800D03*
G54D34*
G01X1530096Y-8563966D03*
G01X1340104Y-8563966D03*
G01X1435100Y-8784234D03*
G54D23*
G01X1375766Y-7448804D03*
G01X1375766Y-7638796D03*
G01X1596034Y-7543800D03*
G54D14*
G01X7657186Y-9599981D03*
G01X7276186Y-9599981D03*
G01X6769087Y-9599981D03*
G01X6388087Y-9599981D03*
G01X5880989Y-9599981D03*
G01X5499989Y-9599981D03*
G01X4992891Y-9599981D03*
G01X4611891Y-9599981D03*
G01X4104792Y-9599981D03*
G01X3723792Y-9599981D03*
G01X3216694Y-9599981D03*
G01X2835694Y-9599981D03*
G01X2328596Y-9599981D03*
G01X1947596Y-9599981D03*
G01X1440498Y-9599981D03*
G01X1059498Y-9599981D03*
G54D35*
G01X7146354Y-7251713D03*
G01X7306247Y-7251687D03*
G01X6257354Y-7251713D03*
G01X6417247Y-7251687D03*
G01X5368354Y-7251713D03*
G01X5528247Y-7251687D03*
G01X4479354Y-7251713D03*
G01X4639247Y-7251687D03*
G01X3590354Y-7251713D03*
G01X3750247Y-7251687D03*
G01X2701354Y-7251713D03*
G01X2861247Y-7251687D03*
G01X1812354Y-7251713D03*
G01X1972247Y-7251687D03*
G01X923354Y-7251713D03*
G01X1083247Y-7251687D03*
G54D36*
G01X7277100Y-8781699D03*
G01X7277100Y-8388701D03*
G01X6388100Y-8781699D03*
G01X6388100Y-8388701D03*
G01X5499100Y-8781699D03*
G01X5499100Y-8388701D03*
G01X4610100Y-8781699D03*
G01X4610100Y-8388701D03*
G01X3721100Y-8781699D03*
G01X3721100Y-8388701D03*
G01X2832100Y-8781699D03*
G01X2832100Y-8388701D03*
G01X1943100Y-8781699D03*
G01X1943100Y-8388701D03*
G01X1061703Y-8780604D03*
G01X1061703Y-8387605D03*
G04 Pad End*

G04 Via Start*
G54D37*
G01X9295139Y-2559439D03*
G01X9258300Y-4902200D03*
G01X8967864Y-8555863D03*
G01X8968181Y-7257085D03*
G01X7289800Y-3263900D03*
G01X927303Y-8039100D03*
G01X1257300Y-8559800D03*
G01X1816100Y-8039100D03*
G01X2705100Y-8039100D03*
G01X3594100Y-8039100D03*
G01X4483100Y-8039100D03*
G01X5372100Y-8039100D03*
G01X6261100Y-8039100D03*
G01X7150100Y-8039100D03*
G01X1193800Y-7251700D03*
G01X2082800Y-7251700D03*
G01X2971800Y-7251700D03*
G01X3860800Y-7251700D03*
G01X4749800Y-7251700D03*
G01X5638800Y-7251700D03*
G01X6527800Y-7251700D03*
G01X7416800Y-7251700D03*
G01X2146300Y-8559800D03*
G01X3035300Y-8559800D03*
G01X3924300Y-8559800D03*
G01X4813300Y-8559800D03*
G01X5702300Y-8559800D03*
G01X6591300Y-8559800D03*
G01X7480300Y-8559800D03*
G01X3017500Y-1210299D03*
G01X4267200Y-1206500D03*
G01X5524500Y-1206500D03*
G01X6769100Y-1206500D03*
G01X1574800Y-3086100D03*
G01X1930400Y-3314700D03*
G01X1422400Y-3987800D03*
G01X1422400Y-2044700D03*
G01X1574800Y-2959100D03*
G01X1574800Y-2832100D03*
G01X1574800Y-2705100D03*
G01X2425700Y-2705100D03*
G01X1866900Y-5486400D03*
G01X1854200Y-5194300D03*
G01X2133600Y-5003800D03*
G01X6288900Y-5815800D03*
G01X6288900Y-4837900D03*
G01X6046000Y-5813400D03*
G01X6046000Y-4837100D03*
G01X5802300Y-5813400D03*
G01X5802300Y-4836300D03*
G01X5553939Y-5792838D03*
G01X5557050Y-4838700D03*
G01X8419300Y-5790400D03*
G01X8419300Y-4927600D03*
G01X8242300Y-5790400D03*
G01X8242300Y-4927600D03*
G01X8065300Y-5790400D03*
G01X8065300Y-4927600D03*
G01X7243790Y-5999988D03*
G01X4292600Y-6216553D03*
G01X2806700Y-6121400D03*
G01X9004300Y-3491700D03*
G01X9004300Y-3124200D03*
G01X4395991Y-3008693D03*
G01X4586491Y-2703893D03*
G01X3951491Y-3249993D03*
G01X8011668Y-2498090D03*
G01X9766300Y-2501900D03*
G01X8699983Y-6337300D03*
G01X8623783Y-5537200D03*
G01X9094734Y-2499995D03*
G01X8636000Y-3454400D03*
G01X8483600Y-3454400D03*
G01X8343900Y-3454400D03*
G01X8255000Y-3695700D03*
G01X8724900Y-3695700D03*
G01X8636000Y-3924300D03*
G01X8483600Y-3924300D03*
G01X8343900Y-3924300D03*
G01X8255000Y-3556000D03*
G01X8724900Y-3556000D03*
G01X8724900Y-3835400D03*
G01X8259322Y-3832144D03*
G01X6997700Y-5753100D03*
G01X6752849Y-5999988D03*
G01X6997700Y-6248400D03*
G01X4432300Y-6070600D03*
G01X2667000Y-5981700D03*
G01X2154087Y-5810608D03*
G01X2286000Y-5956300D03*
G01X4450153Y-2855632D03*
G01X4090468Y-3111868D03*
G01X7975600Y-2349500D03*
G01X9588500Y-2362200D03*
G01X1701800Y-3848100D03*
G01X1701800Y-4127500D03*
G01X1988177Y-3988092D03*
G01X3799992Y-3987292D03*
G01X3632200Y-4178300D03*
G01X1701800Y-1905000D03*
G01X1701800Y-2197100D03*
G01X1985836Y-2049996D03*
G04 Via End*

G04 Track Start*
G54D38*
G01X9295139Y-2686439D02*
G01X9295139Y-2559439D01*
G01X9257192Y-4742150D02*
G01X9258300Y-4743258D01*
G01X9258300Y-4902200D01*
G01X9075445Y-8553148D02*
G01X9072730Y-8555863D01*
G01X8967864Y-8555863D01*
G01X9087282Y-7260085D02*
G01X8971181Y-7260085D01*
G01X8968181Y-7257085D01*
G01X7456687Y-3270652D02*
G01X7449936Y-3263900D01*
G01X7289800Y-3263900D01*
G01X1530096Y-8563966D02*
G01X1530096Y-8380606D01*
G01X1530302Y-8380400D01*
G01X1330302Y-8380400D02*
G01X1330302Y-8258198D01*
G01X1447800Y-8140700D01*
G01X1587297Y-8140700D01*
G01X927303Y-7886700D02*
G01X928700Y-7885303D01*
G01X928700Y-7645400D01*
G01X1128700Y-7645400D02*
G01X1128700Y-7442200D01*
G01X928700Y-7442200D02*
G01X928700Y-7257059D01*
G01X923354Y-7251713D01*
G01X1373200Y-7251700D02*
G01X1373200Y-7446239D01*
G01X1375766Y-7448804D01*
G01X1128700Y-7645400D02*
G01X1369162Y-7645400D01*
G01X1375766Y-7638796D01*
G01X1816303Y-7886700D02*
G01X1816303Y-7646797D01*
G01X1817700Y-7645400D01*
G01X2017700Y-7645400D02*
G01X2017700Y-7442200D01*
G01X1817700Y-7442200D02*
G01X1817700Y-7257059D01*
G01X1812354Y-7251713D01*
G01X2017700Y-7645400D02*
G01X2245462Y-7645400D01*
G01X2252066Y-7638796D01*
G01X2252066Y-7448804D02*
G01X2252066Y-7254265D01*
G01X2249500Y-7251700D01*
G01X2224100Y-8382000D02*
G01X2224100Y-8253400D01*
G01X2336800Y-8140700D01*
G01X2476297Y-8140700D01*
G01X2424100Y-8382000D02*
G01X2424100Y-8558962D01*
G01X2419096Y-8563966D01*
G01X2706700Y-7442200D02*
G01X2706700Y-7257059D01*
G01X2701354Y-7251713D01*
G01X2906700Y-7442200D02*
G01X2906700Y-7645400D01*
G01X2706700Y-7645400D02*
G01X2706700Y-7885303D01*
G01X2705303Y-7886700D01*
G01X2906700Y-7645400D02*
G01X3134970Y-7645400D01*
G01X3141066Y-7651496D01*
G01X3138500Y-7251700D02*
G01X3138500Y-7446239D01*
G01X3141066Y-7448804D01*
G01X3113100Y-8382000D02*
G01X3113100Y-8253400D01*
G01X3225800Y-8140700D01*
G01X3365297Y-8140700D01*
G01X3313100Y-8382000D02*
G01X3313100Y-8558962D01*
G01X3308096Y-8563966D01*
G01X4202100Y-8382000D02*
G01X4202100Y-8558962D01*
G01X4197096Y-8563966D01*
G01X4002100Y-8382000D02*
G01X4002100Y-8253400D01*
G01X4114800Y-8140700D01*
G01X4254297Y-8140700D01*
G01X3594303Y-7886700D02*
G01X3595700Y-7885303D01*
G01X3595700Y-7645400D01*
G01X3795700Y-7645400D02*
G01X3795700Y-7442200D01*
G01X3595700Y-7442200D02*
G01X3595700Y-7257059D01*
G01X3590354Y-7251713D01*
G01X3795700Y-7645400D02*
G01X4036670Y-7645400D01*
G01X4042766Y-7651496D01*
G01X4042766Y-7461504D02*
G01X4042766Y-7254265D01*
G01X4040200Y-7251700D01*
G01X5091100Y-8382000D02*
G01X5091100Y-8558962D01*
G01X5086096Y-8563966D01*
G01X4891100Y-8382000D02*
G01X4891100Y-8253400D01*
G01X5003800Y-8140700D01*
G01X5143297Y-8140700D01*
G01X4483303Y-7886700D02*
G01X4483303Y-7646797D01*
G01X4484700Y-7645400D01*
G01X4684700Y-7645400D02*
G01X4684700Y-7442200D01*
G01X4484700Y-7442200D02*
G01X4484700Y-7259066D01*
G01X4492054Y-7251713D01*
G01X4684700Y-7645400D02*
G01X4912970Y-7645400D01*
G01X4919066Y-7651496D01*
G01X4919066Y-7461504D02*
G01X4919066Y-7254265D01*
G01X4916500Y-7251700D01*
G01X5980100Y-8382000D02*
G01X5980100Y-8558962D01*
G01X5975096Y-8563966D01*
G01X5780100Y-8382000D02*
G01X5780100Y-8253400D01*
G01X5892800Y-8140700D01*
G01X6032297Y-8140700D01*
G01X5372303Y-7886700D02*
G01X5373700Y-7885303D01*
G01X5373700Y-7645400D01*
G01X5573700Y-7645400D02*
G01X5801970Y-7645400D01*
G01X5808066Y-7651496D01*
G01X5573700Y-7645400D02*
G01X5573700Y-7442200D01*
G01X5373700Y-7442200D02*
G01X5373700Y-7257059D01*
G01X5368354Y-7251713D01*
G01X5805500Y-7251700D02*
G01X5805500Y-7458939D01*
G01X5808066Y-7461504D01*
G01X6869100Y-8382000D02*
G01X6869100Y-8558962D01*
G01X6864096Y-8563966D01*
G01X7758100Y-8382000D02*
G01X7758100Y-8558962D01*
G01X7753096Y-8563966D01*
G01X6669100Y-8382000D02*
G01X6669100Y-8253400D01*
G01X6781800Y-8140700D01*
G01X6921297Y-8140700D01*
G01X7558100Y-8382000D02*
G01X7558100Y-8253400D01*
G01X7670800Y-8140700D01*
G01X7810297Y-8140700D01*
G01X6261303Y-7886700D02*
G01X6261303Y-7646797D01*
G01X6262700Y-7645400D01*
G01X6462700Y-7645400D02*
G01X6462700Y-7442200D01*
G01X6262700Y-7442200D02*
G01X6262700Y-7257059D01*
G01X6257354Y-7251713D01*
G01X6462700Y-7645400D02*
G01X6690970Y-7645400D01*
G01X6697066Y-7651496D01*
G01X6697066Y-7461504D02*
G01X6697066Y-7254265D01*
G01X6694500Y-7251700D01*
G01X7150303Y-7886700D02*
G01X7151700Y-7885303D01*
G01X7151700Y-7645400D01*
G01X7351700Y-7645400D02*
G01X7351700Y-7442200D01*
G01X7151700Y-7442200D02*
G01X7151700Y-7257059D01*
G01X7146354Y-7251713D01*
G01X7351700Y-7645400D02*
G01X7579970Y-7645400D01*
G01X7586066Y-7651496D01*
G01X7586066Y-7461504D02*
G01X7586066Y-7254265D01*
G01X7583500Y-7251700D01*
G01X1083247Y-7251687D02*
G01X1193787Y-7251687D01*
G01X1972247Y-7251687D02*
G01X2082787Y-7251687D01*
G01X2861247Y-7251687D02*
G01X2971787Y-7251687D01*
G01X3750247Y-7251687D02*
G01X3860787Y-7251687D01*
G01X4639247Y-7251687D02*
G01X4749787Y-7251687D01*
G01X5528247Y-7251687D02*
G01X5638787Y-7251687D01*
G01X6417247Y-7251687D02*
G01X6527787Y-7251687D01*
G01X7306247Y-7251687D02*
G01X7416787Y-7251687D01*
G01X927303Y-8140700D02*
G01X927303Y-8039100D01*
G01X1816303Y-8140700D02*
G01X1816303Y-8039303D01*
G01X1816100Y-8039100D01*
G01X2705303Y-8140700D02*
G01X2705303Y-8039303D01*
G01X2705100Y-8039100D01*
G01X3594303Y-8140700D02*
G01X3594303Y-8039303D01*
G01X3594100Y-8039100D01*
G01X4483303Y-8140700D02*
G01X4483303Y-8039303D01*
G01X4483100Y-8039100D01*
G01X5372303Y-8140700D02*
G01X5372303Y-8039303D01*
G01X5372100Y-8039100D01*
G01X6261303Y-8140700D02*
G01X6261303Y-8039303D01*
G01X6261100Y-8039100D01*
G01X7150303Y-8140700D02*
G01X7150303Y-8039303D01*
G01X7150100Y-8039100D01*
G01X1340104Y-8563966D02*
G01X1261466Y-8563966D01*
G01X1257300Y-8559800D01*
G01X2229104Y-8563966D02*
G01X2150466Y-8563966D01*
G01X2146300Y-8559800D01*
G01X3118104Y-8563966D02*
G01X3113938Y-8559800D01*
G01X3035300Y-8559800D01*
G01X4007104Y-8563966D02*
G01X3928466Y-8563966D01*
G01X3924300Y-8559800D01*
G01X4896104Y-8563966D02*
G01X4891938Y-8559800D01*
G01X4813300Y-8559800D01*
G01X5785104Y-8563966D02*
G01X5706466Y-8563966D01*
G01X5702300Y-8559800D01*
G01X6674104Y-8563966D02*
G01X6669938Y-8559800D01*
G01X6591300Y-8559800D01*
G01X7563104Y-8563966D02*
G01X7558938Y-8559800D01*
G01X7480300Y-8559800D01*
G01X1440498Y-9599981D02*
G01X1440498Y-8789632D01*
G01X1435100Y-8784234D01*
G01X2328596Y-9599981D02*
G01X2328596Y-8788730D01*
G01X3216694Y-9599981D02*
G01X3216694Y-8787828D01*
G01X3213100Y-8784234D01*
G01X4104792Y-9599981D02*
G01X4104792Y-8786927D01*
G01X4102100Y-8784234D01*
G01X4992891Y-9599981D02*
G01X4992891Y-8786025D01*
G01X4991100Y-8784234D01*
G01X5880989Y-9599981D02*
G01X5880989Y-8785123D01*
G01X5880100Y-8784234D01*
G01X6769087Y-9599981D02*
G01X6769087Y-8784247D01*
G01X7657186Y-9599981D02*
G01X7657186Y-8785149D01*
G01X7658100Y-8784234D01*
G54D39*
G01X399999Y-2999994D02*
G01X406400Y-2993593D01*
G01X406400Y-2582189D01*
G54D38*
G01X1533563Y-5104994D02*
G01X1543698Y-5094859D01*
G01X1543698Y-5487289D02*
G01X1543698Y-5305120D01*
G01X1533563Y-5294986D01*
G01X4272991Y-1349997D02*
G01X4272991Y-1212291D01*
G01X4267200Y-1206500D01*
G01X6772986Y-1349997D02*
G01X6772986Y-1210386D01*
G01X6769100Y-1206500D01*
G01X5522989Y-1349997D02*
G01X5522989Y-1208011D01*
G01X5524500Y-1206500D01*
G01X3022994Y-1349997D02*
G01X3022994Y-1215792D01*
G01X3017500Y-1210299D01*
G01X3522993Y-399999D02*
G01X4022992Y-899998D01*
G01X4022992Y-1349997D01*
G01X4772990Y-399999D02*
G01X5272989Y-899998D01*
G01X5272989Y-1349997D01*
G54D39*
G01X406400Y-2142211D02*
G01X607784Y-2142211D01*
G01X685800Y-2064194D01*
G01X685800Y-364198D01*
G01X899998Y-150000D01*
G01X7403986Y-150000D02*
G01X7653985Y-399999D01*
G54D38*
G01X3903993Y-399999D02*
G01X3903993Y-151309D01*
G01X3902683Y-150000D01*
G54D39*
G01X899998Y-150000D02*
G01X3902683Y-150000D01*
G54D38*
G01X5153990Y-399999D02*
G01X5153990Y-151139D01*
G01X5155129Y-150000D01*
G54D39*
G01X3902683Y-150000D02*
G01X5155129Y-150000D01*
G54D38*
G01X6403988Y-399999D02*
G01X6403988Y-150388D01*
G01X6403599Y-150000D01*
G54D39*
G01X5155129Y-150000D02*
G01X6403599Y-150000D01*
G01X7403986Y-150000D01*
G54D38*
G01X3222993Y-1349997D02*
G01X3422993Y-1349997D01*
G01X3622993Y-1349997D02*
G01X3822992Y-1349997D01*
G01X4472991Y-1349997D02*
G01X4672990Y-1349997D01*
G01X4872990Y-1349997D02*
G01X5072990Y-1349997D01*
G01X5722988Y-1349997D02*
G01X5922988Y-1349997D01*
G01X6972986Y-1349997D02*
G01X7172985Y-1349997D01*
G01X2295195Y-399999D02*
G01X2295195Y-885495D01*
G01X1543698Y-5094859D02*
G01X1543698Y-4912690D01*
G01X1533563Y-5104994D02*
G01X1535570Y-5107000D01*
G01X399999Y-5009490D02*
G01X495503Y-5104994D01*
G01X1533563Y-5104994D01*
G01X399999Y-5390490D02*
G01X495503Y-5294986D01*
G01X1533563Y-5294986D01*
G54D39*
G01X7026186Y-9849980D02*
G01X7276186Y-9599981D01*
G01X699999Y-9649981D02*
G01X899998Y-9849980D01*
G01X699999Y-6099988D02*
G01X699999Y-9649981D01*
G01X150000Y-5549989D02*
G01X699999Y-6099988D01*
G01X406400Y-2142211D02*
G01X257785Y-2142211D01*
G01X150000Y-2249995D01*
G54D38*
G01X1059498Y-9599981D02*
G01X1059498Y-9849029D01*
G01X1058547Y-9849980D01*
G54D39*
G01X899998Y-9849980D02*
G01X1058547Y-9849980D01*
G54D38*
G01X1947596Y-9848401D02*
G01X1949175Y-9849980D01*
G54D39*
G01X1058547Y-9849980D02*
G01X1949175Y-9849980D01*
G01X2835827Y-9849980D01*
G54D38*
G01X3723792Y-9849305D02*
G01X3724468Y-9849980D01*
G54D39*
G01X2835827Y-9849980D02*
G01X3724468Y-9849980D01*
G54D38*
G01X4611891Y-9848763D02*
G01X4613108Y-9849980D01*
G54D39*
G01X3724468Y-9849980D02*
G01X4613108Y-9849980D01*
G54D38*
G01X5499989Y-9848221D02*
G01X5501749Y-9849980D01*
G54D39*
G01X4613108Y-9849980D02*
G01X5501749Y-9849980D01*
G54D38*
G01X6388087Y-9599981D02*
G01X6388401Y-9600295D01*
G01X6388401Y-9849980D01*
G54D39*
G01X5501749Y-9849980D02*
G01X6388401Y-9849980D01*
G01X7026186Y-9849980D01*
G54D38*
G01X1587297Y-7886700D02*
G01X1596034Y-7877962D01*
G01X1596034Y-7543800D01*
G01X2476297Y-7886700D02*
G01X2476297Y-7547762D01*
G01X2472334Y-7543800D01*
G01X3365297Y-7886700D02*
G01X3365297Y-7547762D01*
G01X3361334Y-7543800D01*
G01X4254297Y-7886700D02*
G01X4254297Y-7547762D01*
G01X4250334Y-7543800D01*
G01X5143297Y-7886700D02*
G01X5143297Y-7547762D01*
G01X5139334Y-7543800D01*
G01X6032297Y-7886700D02*
G01X6032297Y-7547762D01*
G01X6028334Y-7543800D01*
G01X6921297Y-7886700D02*
G01X6921297Y-7547762D01*
G01X6917334Y-7543800D01*
G01X7810297Y-7886700D02*
G01X7810297Y-7547762D01*
G01X7806334Y-7543800D01*
G54D39*
G01X150000Y-2249995D02*
G01X150000Y-3728027D01*
G01X150000Y-5549989D01*
G01X2599982Y-4150004D02*
G01X2599982Y-3988092D01*
G01X2499995Y-4249991D02*
G01X2599982Y-4150004D01*
G01X150000Y-3728027D02*
G01X928033Y-3728027D01*
G01X1449997Y-4249991D01*
G01X2499995Y-4249991D01*
G01X1700009Y-3988092D02*
G01X1699717Y-3987800D01*
G01X1422400Y-3987800D01*
G01X2075396Y-3313493D02*
G01X1931607Y-3313493D01*
G01X1930400Y-3314700D01*
G01X2425700Y-2705100D02*
G01X2421306Y-2709494D01*
G01X2270506Y-2709494D01*
G01X1574800Y-2959100D02*
G01X1725092Y-2959100D01*
G01X1729486Y-2963494D01*
G01X2275396Y-3313493D02*
G01X2275396Y-3095384D01*
G01X2270506Y-3090494D01*
G54D38*
G01X1533563Y-5294986D02*
G01X1534249Y-5294300D01*
G01X2097100Y-5294300D01*
G01X2133600Y-5257800D01*
G01X2231390Y-5257800D01*
G01X2097100Y-5107000D02*
G01X2120900Y-5130800D01*
G01X2231390Y-5130800D01*
G01X2097100Y-5107000D02*
G01X1535570Y-5107000D01*
G54D39*
G01X2133600Y-5003800D02*
G01X2282190Y-5003800D01*
G54D38*
G01X1743697Y-5487289D02*
G01X1866011Y-5487289D01*
G01X1866900Y-5486400D01*
G01X8522983Y-399999D02*
G01X8522983Y-277000D01*
G01X8599983Y-200000D01*
G01X9149982Y-200000D01*
G01X9249982Y-299999D01*
G01X7733192Y-3133201D02*
G01X7733192Y-2942128D01*
G01X7860192Y-3110201D02*
G01X7860192Y-2942128D01*
G01X8749192Y-4742150D02*
G01X8749192Y-4550782D01*
G01X8149984Y-7172985D02*
G01X8349983Y-7372985D01*
G01X8976652Y-4479671D02*
G01X8902862Y-4553461D01*
G01X8902862Y-4715480D01*
G01X8349983Y-7626985D02*
G01X8349983Y-7579995D01*
G01X8902862Y-4715480D02*
G01X8876192Y-4742150D01*
G01X8349983Y-7579995D02*
G01X8049984Y-7279996D01*
G01X9426651Y-4576661D02*
G01X9329661Y-4479671D01*
G01X8976652Y-4479671D01*
G01X8864600Y-8939200D02*
G01X8869937Y-8933863D01*
G01X9074264Y-8933863D01*
G01X8877300Y-7631100D02*
G01X8881285Y-7635085D01*
G01X9087282Y-7635085D01*
G01X8623300Y-5043500D02*
G01X8623300Y-4743258D01*
G01X8622192Y-4742150D01*
G01X9004300Y-4743258D02*
G01X9003192Y-4742150D01*
G01X7669174Y-5130800D02*
G01X7860192Y-4939783D01*
G01X7860192Y-4742150D01*
G01X2823210Y-5384800D02*
G01X7565174Y-5384800D01*
G01X7987192Y-4962782D01*
G01X7987192Y-4742150D01*
G01X2823210Y-5003800D02*
G01X7646175Y-5003800D01*
G01X7733192Y-4916783D01*
G01X7733192Y-4742150D01*
G01X1573200Y-7251700D02*
G01X1573200Y-7126783D01*
G01X1899996Y-6799986D01*
G01X4549991Y-6799986D01*
G54D39*
G01X2806700Y-5780100D02*
G01X3072575Y-5780100D01*
G01X3074962Y-5782488D01*
G01X4292600Y-6069000D02*
G01X4202100Y-6069000D01*
G01X4292600Y-5869000D02*
G01X4202100Y-5869000D01*
G01X4161612Y-5909488D01*
G01X4025024Y-5909488D01*
G54D38*
G01X3882492Y-5782488D02*
G01X4025024Y-5782488D01*
G01X3849992Y-5749988D02*
G01X3882492Y-5782488D01*
G01X3849992Y-5599989D02*
G01X3849992Y-5749988D01*
G01X3949992Y-5499989D02*
G01X3849992Y-5599989D01*
G01X8623300Y-5043500D02*
G01X8056474Y-5043500D01*
G01X7599985Y-5499989D01*
G01X3949992Y-5499989D01*
G01X8242300Y-4927600D02*
G01X8242300Y-4743258D01*
G01X8241192Y-4742150D01*
G01X7302327Y-3397652D02*
G01X7456687Y-3397652D01*
G01X7987192Y-2787202D02*
G01X7987192Y-2942128D01*
G01X8114192Y-2764202D02*
G01X8114192Y-2942128D01*
G01X4799990Y-6999986D02*
G01X5986577Y-5813400D01*
G01X6046000Y-5813400D01*
G01X6046000Y-4837100D02*
G01X6046000Y-4653978D01*
G01X7302327Y-3397652D01*
G01X4649991Y-6899986D02*
G01X5736577Y-5813400D01*
G01X5802300Y-5813400D01*
G01X5802300Y-4836300D02*
G01X5802300Y-4091454D01*
G01X4549991Y-6799986D02*
G01X5553939Y-5796039D01*
G01X5553939Y-5792838D01*
G01X5557050Y-4838700D02*
G01X5557050Y-4142930D01*
G01X4899990Y-7099986D02*
G01X6184176Y-5815800D01*
G01X6288900Y-5815800D01*
G01X6288900Y-4837900D02*
G01X6840148Y-4286652D01*
G01X7456687Y-4286652D01*
G01X9299981Y-3349993D02*
G01X7949984Y-3349993D01*
G01X7733192Y-3133201D01*
G01X9249982Y-3249993D02*
G01X7999984Y-3249993D01*
G01X7860192Y-3110201D01*
G01X9004300Y-3124200D02*
G01X9004300Y-2943236D01*
G01X9003192Y-2942128D01*
G01X8749192Y-4550782D02*
G01X8899982Y-4399991D01*
G01X9349981Y-4399991D01*
G01X9499981Y-4549991D01*
G01X7606192Y-4593784D02*
G01X7606192Y-4742150D01*
G01X9575800Y-4525810D02*
G01X9367990Y-4318000D01*
G01X7881976Y-4318000D01*
G01X7606192Y-4593784D01*
G01X9004300Y-3835400D02*
G01X9004300Y-3491700D01*
G01X9095140Y-2686439D02*
G01X9095140Y-2783240D01*
G01X9130192Y-2818292D01*
G01X9130192Y-2942128D01*
G01X9295139Y-2686439D02*
G01X9295139Y-2782561D01*
G01X9257192Y-2820508D01*
G01X9257192Y-2942128D01*
G54D39*
G01X4786972Y-2855632D02*
G01X4910123Y-2855632D01*
G01X4983970Y-2929478D01*
G01X4983970Y-3355632D01*
G01X4389978Y-3355632D02*
G01X4983970Y-3355632D01*
G54D38*
G01X4672990Y-1349997D02*
G01X4672990Y-1522997D01*
G01X4999990Y-1849996D01*
G01X2295195Y-885495D02*
G01X3459696Y-2049996D01*
G01X3422993Y-1349997D02*
G01X3422993Y-1522997D01*
G01X3849992Y-1949996D01*
G01X1445197Y-399999D02*
G01X1445197Y-895198D01*
G01X1999996Y-1449997D01*
G01X2649995Y-1449997D01*
G01X3349993Y-2149996D01*
G01X5802300Y-4091454D02*
G01X7193760Y-2699995D01*
G01X7899984Y-2699995D01*
G01X7987192Y-2787202D01*
G01X5557050Y-4142930D02*
G01X7099986Y-2599995D01*
G01X7949984Y-2599995D01*
G01X8114192Y-2764202D01*
G01X3459696Y-2049996D02*
G01X8049984Y-2049996D01*
G01X8368192Y-2368204D01*
G01X8368192Y-2942128D01*
G01X3349993Y-2149996D02*
G01X7999984Y-2149996D01*
G01X8241192Y-2391203D01*
G01X8241192Y-2942128D01*
G01X9449981Y-3049994D02*
G01X9249982Y-3249993D01*
G01X9249982Y-299999D02*
G01X9249982Y-1549997D01*
G01X8776983Y-399999D02*
G01X8776983Y-1476997D01*
G01X9449981Y-2149996D01*
G01X9449981Y-3049994D01*
G01X9249982Y-1549997D02*
G01X9699981Y-1999996D01*
G01X9699981Y-2399995D01*
G01X9599981Y-2499995D01*
G01X9599981Y-3049994D01*
G01X9299981Y-3349993D01*
G01X8799982Y-9099982D02*
G01X8699983Y-8999982D01*
G01X9699981Y-9099982D02*
G01X8799982Y-9099982D01*
G01X9799980Y-8999982D02*
G01X9699981Y-9099982D01*
G01X9799980Y-7149986D02*
G01X9799980Y-8999982D01*
G01X9685299Y-8937800D02*
G01X9334500Y-8587001D01*
G01X9687281Y-7635085D02*
G01X9687281Y-7487285D01*
G01X9334500Y-8587001D02*
G01X9334500Y-7284504D01*
G01X9649981Y-4481081D02*
G01X9004300Y-3835400D01*
G01X9334500Y-7284504D02*
G01X8999982Y-6949986D01*
G01X9687281Y-7487285D02*
G01X9099982Y-6899986D01*
G01X9199982Y-6549987D02*
G01X9799980Y-7149986D01*
G01X8699983Y-8999982D02*
G01X8699983Y-8739200D01*
G01X8864600Y-8739200D01*
G01X9130192Y-4913792D02*
G01X9130192Y-4742150D01*
G01X9004300Y-5043500D02*
G01X9004300Y-4743258D01*
G01X9107500Y-5043500D02*
G01X9004300Y-5043500D01*
G01X9156700Y-5092700D02*
G01X9107500Y-5043500D01*
G01X9766300Y-2501900D02*
G01X9766300Y-5583669D01*
G01X9199982Y-6149988D01*
G01X9199982Y-6549987D01*
G01X9099982Y-6899986D02*
G01X9099982Y-6099988D01*
G01X9649981Y-5549989D01*
G01X9649981Y-4481081D01*
G01X8999982Y-6949986D02*
G01X8999982Y-6049988D01*
G01X9575800Y-5474170D01*
G01X9575800Y-4525810D01*
G01X9499981Y-4549991D02*
G01X9499981Y-5399989D01*
G01X8149984Y-6749986D01*
G01X8149984Y-7172985D01*
G01X8049984Y-7279996D02*
G01X8049984Y-6699987D01*
G01X9426651Y-5323319D01*
G01X9426651Y-4576661D01*
G01X7783500Y-7251700D02*
G01X7783500Y-6816471D01*
G01X9299981Y-5299989D01*
G01X9299981Y-5083581D01*
G01X9130192Y-4913792D01*
G01X8699983Y-7431100D02*
G01X8877300Y-7431100D01*
G01X8699983Y-7431100D02*
G01X8699983Y-6337300D01*
G01X8623783Y-5537200D02*
G01X8623300Y-5536717D01*
G01X8623300Y-5243500D01*
G01X4025024Y-5655488D02*
G01X8844483Y-5655488D01*
G01X9156700Y-5343271D01*
G01X9156700Y-5092700D01*
G01X8623783Y-5537200D02*
G01X8862771Y-5537200D01*
G01X9004300Y-5395671D01*
G01X9004300Y-5243500D01*
G01X9094734Y-2499995D02*
G01X9094734Y-2686033D01*
G01X9095140Y-2686439D01*
G54D39*
G01X2680106Y-5780100D02*
G01X2806700Y-5780100D01*
G01X4983970Y-3355632D02*
G01X4983970Y-3716013D01*
G01X2806700Y-5980100D02*
G01X2806700Y-6121400D01*
G01X4292600Y-5869000D02*
G01X4419003Y-5869000D01*
G01X4549991Y-5999988D01*
G01X4797483Y-5999988D01*
G01X4086972Y-3255632D02*
G01X4081334Y-3249993D01*
G01X3951491Y-3249993D01*
G01X4586973Y-2855632D02*
G01X4586973Y-2704376D01*
G01X4586491Y-2703893D01*
G01X8349091Y-3692139D02*
G01X8258561Y-3692139D01*
G01X8255000Y-3695700D01*
G01X8349091Y-3552135D02*
G01X8349091Y-3459591D01*
G01X8343900Y-3454400D01*
G01X8489096Y-3552135D02*
G01X8489096Y-3459896D01*
G01X8483600Y-3454400D01*
G01X8629101Y-3552135D02*
G01X8636000Y-3545235D01*
G01X8636000Y-3454400D01*
G01X8629101Y-3692139D02*
G01X8721339Y-3692139D01*
G54D38*
G01X8721339Y-3692139D02*
G01X8724900Y-3695700D01*
G54D39*
G01X8629101Y-3832144D02*
G01X8636000Y-3839044D01*
G01X8636000Y-3924300D01*
G01X8349091Y-3832144D02*
G01X8349091Y-3919109D01*
G01X8343900Y-3924300D01*
G01X8349091Y-3552135D02*
G01X8258865Y-3552135D01*
G01X8255000Y-3556000D01*
G01X8629101Y-3552135D02*
G01X8721035Y-3552135D01*
G01X8724900Y-3556000D01*
G01X8629101Y-3832144D02*
G01X8721644Y-3832144D01*
G01X8724900Y-3835400D01*
G01X8349091Y-3832144D02*
G01X8259322Y-3832144D01*
G54D38*
G01X2823210Y-5257800D02*
G01X3276600Y-5257800D01*
G01X3327400Y-5207000D01*
G01X3327400Y-5131979D01*
G01X3326221Y-5130800D01*
G01X2823210Y-5130800D02*
G01X3326221Y-5130800D01*
G01X7669174Y-5130800D01*
G54D39*
G01X2599982Y-3988092D02*
G01X2599982Y-3971582D01*
G01X2275396Y-3646995D01*
G01X2275396Y-3313493D01*
G01X1574800Y-3086100D02*
G01X1725092Y-3086100D01*
G01X1729486Y-3090494D01*
G01X1574800Y-2832100D02*
G01X1725092Y-2832100D01*
G01X1729486Y-2836494D01*
G01X1574800Y-2705100D02*
G01X1725092Y-2705100D01*
G01X1729486Y-2709494D01*
G01X7002490Y-5999988D02*
G01X7243790Y-5999988D01*
G01X6752849Y-5999988D02*
G01X7002490Y-5999988D01*
G01X6997700Y-5753100D02*
G01X6997700Y-5995198D01*
G01X7002490Y-5999988D01*
G01X6997700Y-6248400D02*
G01X6997700Y-6004778D01*
G01X7002490Y-5999988D01*
G01X2806700Y-5980100D02*
G01X2805100Y-5981700D01*
G01X2667000Y-5981700D01*
G01X4292600Y-6069000D02*
G01X4430700Y-6069000D01*
G01X4432300Y-6070600D01*
G01X4292600Y-6069000D02*
G01X4292600Y-6216553D01*
G01X2649995Y-5749988D02*
G01X2680106Y-5780100D01*
G01X2287295Y-5612689D02*
G01X2646436Y-5612689D01*
G01X2649995Y-5616248D01*
G01X2649995Y-5749988D01*
G01X2287295Y-5612689D02*
G01X2287295Y-5389905D01*
G01X2282190Y-5384800D01*
G01X4983970Y-3716013D02*
G01X4049992Y-4649991D01*
G01X2799994Y-4649991D01*
G01X2649995Y-4799990D01*
G54D38*
G01X1743697Y-4912690D02*
G01X2647835Y-4912690D01*
G01X2649995Y-4910530D01*
G54D39*
G01X2649995Y-4799990D02*
G01X2649995Y-4910530D01*
G01X2649995Y-5616248D01*
G01X2286000Y-5956300D02*
G01X2286000Y-5813984D01*
G01X2287295Y-5812688D01*
G01X2154087Y-5810608D02*
G01X2285215Y-5810608D01*
G01X2287295Y-5812688D01*
G54D38*
G01X1854200Y-5194300D02*
G01X1759522Y-5194300D01*
G01X1753832Y-5199990D01*
G54D39*
G01X4086972Y-3255632D02*
G01X4086972Y-3115364D01*
G01X4090468Y-3111868D01*
G01X4586973Y-2855632D02*
G01X4450153Y-2855632D01*
G01X8489096Y-3832144D02*
G01X8489096Y-3692114D01*
G01X8349116Y-3692114D01*
G01X8489096Y-3692114D02*
G01X8629075Y-3692114D01*
G01X8489096Y-3692114D02*
G01X8489096Y-3552135D01*
G01X8489096Y-3832144D02*
G01X8489096Y-3918804D01*
G01X8483600Y-3924300D01*
G01X4202100Y-6069000D02*
G01X4169588Y-6036488D01*
G01X4025024Y-6036488D01*
G54D38*
G01X6122988Y-1349997D02*
G01X6324587Y-1349997D01*
G01X7372985Y-1349997D02*
G01X7574585Y-1349997D01*
G01X6022988Y-399999D02*
G01X6524587Y-901598D01*
G01X6524587Y-1349997D01*
G01X7272985Y-399999D02*
G01X7774584Y-901598D01*
G01X7774584Y-1349997D01*
G01X6324587Y-1349997D02*
G01X6324587Y-1474597D01*
G01X6599987Y-1749996D01*
G01X7574585Y-1349997D02*
G01X7574585Y-1474597D01*
G01X7749985Y-1649997D01*
G01X3849992Y-1949996D02*
G01X8099984Y-1949996D01*
G01X8495192Y-2345204D01*
G01X8495192Y-2942128D01*
G01X4999990Y-1849996D02*
G01X8149984Y-1849996D01*
G01X8622192Y-2322204D01*
G01X8622192Y-2942128D01*
G01X6599987Y-1749996D02*
G01X8199984Y-1749996D01*
G01X8749192Y-2299205D01*
G01X8749192Y-2942128D01*
G01X7749985Y-1649997D02*
G01X8249984Y-1649997D01*
G01X8876192Y-2276205D01*
G01X8876192Y-2942128D01*
G01X7199986Y-6849986D02*
G01X8242300Y-5807672D01*
G01X8242300Y-5790400D01*
G01X8065300Y-5790400D02*
G01X7105714Y-6749986D01*
G01X7299985Y-6949986D02*
G01X8419300Y-5830672D01*
G01X8419300Y-5790400D01*
G01X8065300Y-4927600D02*
G01X8114192Y-4878708D01*
G01X8114192Y-4742150D01*
G01X8419300Y-4927600D02*
G01X8368192Y-4876492D01*
G01X8368192Y-4742150D01*
G54D39*
G01X4389978Y-3125635D02*
G01X4389978Y-3014706D01*
G01X4395991Y-3008693D01*
G54D38*
G01X8349983Y-7880985D02*
G01X8695523Y-7880985D01*
G01X8699983Y-7876526D01*
G01X8699983Y-8739200D02*
G01X8699983Y-7876526D01*
G01X8699983Y-7431100D01*
G01X4983970Y-3355632D02*
G01X6144349Y-3355632D01*
G01X7001891Y-2498090D01*
G01X8011668Y-2498090D01*
G01X9588500Y-2362200D02*
G01X9588500Y-2088515D01*
G01X9030983Y-1530998D01*
G01X9030983Y-399999D01*
G54D39*
G01X4086972Y-3455632D02*
G01X4086972Y-3553572D01*
G01X4119029Y-3585629D01*
G01X4389978Y-3585629D01*
G01X2599982Y-2049996D02*
G01X2949994Y-2049996D01*
G01X3199994Y-2299995D01*
G01X3199994Y-2499995D01*
G54D38*
G01X2328596Y-8788730D02*
G01X2324100Y-8784234D01*
G01X5499989Y-9599981D02*
G01X5499989Y-9848221D01*
G01X4611891Y-9599981D02*
G01X4611891Y-9848763D01*
G01X3723792Y-9599981D02*
G01X3723792Y-9849305D01*
G01X2835694Y-9599981D02*
G01X2835694Y-9849847D01*
G01X1947596Y-9599981D02*
G01X1947596Y-9848401D01*
G54D39*
G01X1700009Y-3988092D02*
G01X1701800Y-3986301D01*
G01X1701800Y-3848100D01*
G01X1700009Y-3988092D02*
G01X1988177Y-3988092D01*
G01X1700009Y-3988092D02*
G01X1701800Y-3989883D01*
G01X1701800Y-4127500D01*
G01X3199994Y-3499993D02*
G01X3196311Y-3503676D01*
G01X3196311Y-3987800D01*
G01X3636289Y-3987800D02*
G01X3799484Y-3987800D01*
G01X3799992Y-3987292D01*
G01X3636289Y-3987800D02*
G01X3636289Y-4174211D01*
G01X3632200Y-4178300D01*
G01X2270506Y-2836494D02*
G01X3063494Y-2836494D01*
G01X3199994Y-2699995D01*
G01X3199994Y-2499995D01*
G01X2270506Y-2963494D02*
G01X3063494Y-2963494D01*
G01X3199994Y-3099994D01*
G01X3199994Y-3499993D01*
G01X3199994Y-2499995D02*
G01X3599993Y-2499995D01*
G01X3955631Y-3455632D02*
G01X4086972Y-3455632D01*
G01X3599993Y-2499995D02*
G01X3799992Y-2699995D01*
G01X3799992Y-3299993D02*
G01X3955631Y-3455632D01*
G54D38*
G01X3805964Y-2849994D02*
G01X3799992Y-2844023D01*
G54D39*
G01X3799992Y-2699995D02*
G01X3799992Y-2844023D01*
G01X3799992Y-3299993D01*
G54D38*
G01X7975600Y-2349500D02*
G01X4584700Y-2349500D01*
G01X4084206Y-2849994D01*
G01X3805964Y-2849994D01*
G54D39*
G01X1700009Y-2049996D02*
G01X1701800Y-2048205D01*
G01X1701800Y-1905000D01*
G01X1700009Y-2049996D02*
G01X1701800Y-2051787D01*
G01X1701800Y-2197100D01*
G01X1700009Y-2049996D02*
G01X1985836Y-2049996D01*
G01X1422400Y-2044700D02*
G01X1694713Y-2044700D01*
G54D38*
G01X3338500Y-7251700D02*
G01X3338500Y-7139000D01*
G01X3477514Y-6999986D01*
G01X4799990Y-6999986D01*
G01X4240200Y-7251700D02*
G01X4240200Y-7139000D01*
G01X4279214Y-7099986D01*
G01X4899990Y-7099986D01*
G01X2449500Y-7251700D02*
G01X2449500Y-7126300D01*
G01X2675814Y-6899986D01*
G01X4649991Y-6899986D01*
G01X7105714Y-6749986D02*
G01X5492814Y-6749986D01*
G01X5116500Y-7126300D01*
G01X5116500Y-7251700D01*
G01X6005500Y-7251700D02*
G01X6005500Y-7126300D01*
G01X6281814Y-6849986D01*
G01X7199986Y-6849986D01*
G01X6894500Y-7251700D02*
G01X6894500Y-7126300D01*
G01X7070814Y-6949986D01*
G01X7299985Y-6949986D01*
G01X7277100Y-8781699D02*
G01X7655565Y-8781699D01*
G01X7658100Y-8784234D01*
G01X6388100Y-8781699D02*
G01X6766565Y-8781699D01*
G01X6769100Y-8784234D01*
G01X5499100Y-8781699D02*
G01X5877565Y-8781699D01*
G01X5880100Y-8784234D01*
G01X4610100Y-8781699D02*
G01X4988565Y-8781699D01*
G01X4991100Y-8784234D01*
G01X3721100Y-8781699D02*
G01X4099565Y-8781699D01*
G01X4102100Y-8784234D01*
G01X2832100Y-8781699D02*
G01X3210565Y-8781699D01*
G01X3213100Y-8784234D01*
G01X1943100Y-8781699D02*
G01X2321565Y-8781699D01*
G01X2324100Y-8784234D01*
G01X1061703Y-8780604D02*
G01X1431470Y-8780604D01*
G01X1435100Y-8784234D01*
G01X7810297Y-7886700D02*
G01X7670800Y-7886700D01*
G01X7277100Y-8280400D01*
G01X7277100Y-8388701D01*
G01X6921297Y-7886700D02*
G01X6781800Y-7886700D01*
G01X6388100Y-8280400D01*
G01X6388100Y-8388701D01*
G01X6032297Y-7886700D02*
G01X5892800Y-7886700D01*
G01X5499100Y-8280400D01*
G01X5499100Y-8388701D01*
G01X5143297Y-7886700D02*
G01X5003800Y-7886700D01*
G01X4610100Y-8280400D01*
G01X4610100Y-8388701D01*
G01X4254297Y-7886700D02*
G01X4114800Y-7886700D01*
G01X3721100Y-8280400D01*
G01X3721100Y-8388701D01*
G01X3365297Y-7886700D02*
G01X3225800Y-7886700D01*
G01X2832100Y-8280400D01*
G01X2832100Y-8388701D01*
G01X2476297Y-7886700D02*
G01X2336800Y-7886700D01*
G01X1943100Y-8280400D01*
G01X1943100Y-8388701D01*
G01X1587297Y-7886700D02*
G01X1447800Y-7886700D01*
G01X1061703Y-8272797D01*
G01X1061703Y-8387605D01*
G01X1059498Y-9599981D02*
G01X1059498Y-9187497D01*
G01X876300Y-9004300D01*
G01X1947596Y-9599981D02*
G01X1947596Y-9186596D01*
G01X1752600Y-8991600D01*
G01X2835694Y-9599981D02*
G01X2835694Y-9185694D01*
G01X2641600Y-8991600D01*
G01X3723792Y-9599981D02*
G01X3723792Y-9172092D01*
G01X3530600Y-8978900D01*
G01X4611891Y-9599981D02*
G01X4611891Y-9183891D01*
G01X4419600Y-8991600D01*
G01X5499989Y-9599981D02*
G01X5499989Y-9182989D01*
G01X5308600Y-8991600D01*
G01X6388087Y-9599981D02*
G01X6388087Y-9182087D01*
G01X6197600Y-8991600D01*
G01X7276186Y-9599981D02*
G01X7276186Y-9181186D01*
G01X7086600Y-8991600D01*
G01X1752600Y-8991600D02*
G01X1752600Y-8470900D01*
G01X1834799Y-8388701D01*
G01X1943100Y-8388701D01*
G01X876300Y-9004300D02*
G01X876300Y-8458200D01*
G01X946895Y-8387605D01*
G01X1061703Y-8387605D01*
G01X2641600Y-8991600D02*
G01X2641600Y-8470900D01*
G01X2723799Y-8388701D01*
G01X2832100Y-8388701D01*
G01X3530600Y-8978900D02*
G01X3530600Y-8470900D01*
G01X3612799Y-8388701D01*
G01X3721100Y-8388701D01*
G01X4419600Y-8991600D02*
G01X4419600Y-8470900D01*
G01X4501799Y-8388701D01*
G01X4610100Y-8388701D01*
G01X5308600Y-8991600D02*
G01X5308600Y-8470900D01*
G01X5390799Y-8388701D01*
G01X5499100Y-8388701D01*
G01X6197600Y-8991600D02*
G01X6197600Y-8470900D01*
G01X6279787Y-8388713D01*
G01X6388087Y-8388713D01*
G01X7086600Y-8991600D02*
G01X7086600Y-8470900D01*
G01X7168799Y-8388701D01*
G01X7277100Y-8388701D01*
G04 Track End*

M02*

