G04 Layer: DrillDrawingLayer*
G04 EasyEDA Pro v2.2.40.8, 2025-08-06 11:59:20*
G04 Gerber Generator version 0.3*
G04 Scale: 100 percent, Rotated: No, Reflected: No*
G04 Dimensions in millimeters*
G04 Leading zeros omitted, absolute positions, 4 integers and 5 decimals*
G04 Generated by one-click*
%FSLAX45Y45*%
%MOMM*%
%AMIconRect*4,1,4,0.2,-0.2,-0.2,-0.2,-0.2,0.2,0.2,0.2,0.2,-0.2,0*4,0,4,0.166667,-0.166667,0.166667,0.166667,-0.166667,0.166667,-0.166667,-0.166667,0.166667,-0.166667,0*%
%AMIconTriangle*4,1,3,-0.242567,0.171767,0.242567,0.171767,0,-0.2706,-0.242567,0.171767,0*4,0,3,-0.189767,0.1386,0,-0.1953,0.190167,0.1386,-0.189767,0.1386,0*%
%AMIconStar6*4,1,12,0.0862,0.1492,0.213233,0.123367,0.172367,0,0.213233,-0.1229,0.0862,-0.148733,0,-0.245767,-0.085767,-0.148733,-0.213267,-0.1229,-0.171933,0,-0.213267,0.1229,-0.085767,0.1492,0,0.245767,0.0862,0.1492,0*4,0,12,-0.000333,0.195333,-0.064333,0.122667,-0.169667,0.097667,-0.138333,-0.005333,-0.169667,-0.098,-0.064333,-0.122667,-0.000333,-0.195667,0.064333,-0.122667,0.169667,-0.098,0.138667,0.005,0.169667,0.098,0.064333,0.122333,-0.000333,0.195333,0*%
%AMIconStar4*4,1,8,-0.222667,0.222667,0,0.144667,0.222667,0.222667,0.144667,0,0.222667,-0.222667,0,-0.144667,-0.217433,-0.222667,-0.144667,0,-0.222667,0.222667,0*4,0,8,0.166667,-0.166667,0.108,0,0.166667,0.166667,0,0.108,-0.166667,0.166667,-0.108,0,-0.166667,-0.166667,0,-0.108,0.166667,-0.166667,0*%
%ADD10IconRect*%
%ADD11C,0.44X0.373333*%
%ADD12IconTriangle*%
%ADD13IconStar6*%
%ADD14IconStar4*%
G75*


G04 Drill Drawing Start*
G54D10*
G01X8268983Y-399999D03*
G01X8349983Y-7880985D03*
G01X8349983Y-7626985D03*
G01X8349983Y-7372985D03*
G01X8349983Y-7118985D03*
G01X8522983Y-399999D03*
G01X8776983Y-399999D03*
G01X9030983Y-399999D03*
G54D11*
G01X299999Y-9699981D03*
G01X299999Y-6249987D03*
G01X299999Y-1349997D03*
G01X299999Y-299999D03*
G01X9699981Y-9649981D03*
G01X9699981Y-6249987D03*
G01X9699981Y-1399997D03*
G01X9699981Y-299999D03*
G54D12*
G01X3141993Y-399999D03*
G01X3522993Y-399999D03*
G01X3903993Y-399999D03*
G01X4391990Y-399999D03*
G01X4772990Y-399999D03*
G01X5153990Y-399999D03*
G01X5641988Y-399999D03*
G01X6022988Y-399999D03*
G01X6403988Y-399999D03*
G01X6891985Y-399999D03*
G01X7272985Y-399999D03*
G01X7653985Y-399999D03*
G54D13*
G01X399999Y-5390490D03*
G01X399999Y-5009490D03*
G01X399999Y-4440491D03*
G01X399999Y-4059491D03*
G01X399999Y-3390494D03*
G01X399999Y-3009494D03*
G01X1059498Y-9599981D03*
G01X1064197Y-399999D03*
G01X1440498Y-9599981D03*
G01X1445197Y-399999D03*
G01X1914195Y-399999D03*
G01X1947596Y-9599981D03*
G01X2295195Y-399999D03*
G01X2328596Y-9599981D03*
G01X2835694Y-9599981D03*
G01X3216694Y-9599981D03*
G01X3723792Y-9599981D03*
G01X4104792Y-9599981D03*
G01X4611891Y-9599981D03*
G01X4992891Y-9599981D03*
G01X5499989Y-9599981D03*
G01X5880989Y-9599981D03*
G01X6388087Y-9599981D03*
G01X6769087Y-9599981D03*
G01X7276186Y-9599981D03*
G01X7657186Y-9599981D03*
G54D14*
G01X927303Y-8039100D03*
G01X1193800Y-7251700D03*
G01X1257300Y-8559800D03*
G01X1422400Y-3987800D03*
G01X1422400Y-2044700D03*
G01X1574800Y-3086100D03*
G01X1574800Y-2959100D03*
G01X1574800Y-2832100D03*
G01X1574800Y-2705100D03*
G01X1701800Y-4127500D03*
G01X1701800Y-3848100D03*
G01X1701800Y-2197100D03*
G01X1701800Y-1905000D03*
G01X1816100Y-8039100D03*
G01X1854200Y-5194300D03*
G01X1866900Y-5486400D03*
G01X1930400Y-3314700D03*
G01X1985836Y-2049996D03*
G01X1988177Y-3988092D03*
G01X2082800Y-7251700D03*
G01X2133600Y-5003800D03*
G01X2146300Y-8559800D03*
G01X2154087Y-5810608D03*
G01X2286000Y-5956300D03*
G01X2425700Y-2705100D03*
G01X2667000Y-5981700D03*
G01X2705100Y-8039100D03*
G01X2806700Y-6121400D03*
G01X2971800Y-7251700D03*
G01X3017500Y-1210299D03*
G01X3035300Y-8559800D03*
G01X3594100Y-8039100D03*
G01X3632200Y-4178300D03*
G01X3799992Y-3987292D03*
G01X3860800Y-7251700D03*
G01X3924300Y-8559800D03*
G01X3951491Y-3249993D03*
G01X4090468Y-3111868D03*
G01X4267200Y-1206500D03*
G01X4292600Y-6216553D03*
G01X4395991Y-3008693D03*
G01X4432300Y-6070600D03*
G01X4450153Y-2855632D03*
G01X4483100Y-8039100D03*
G01X4586491Y-2703893D03*
G01X4749800Y-7251700D03*
G01X4813300Y-8559800D03*
G01X5372100Y-8039100D03*
G01X5524500Y-1206500D03*
G01X5553939Y-5792838D03*
G01X5557050Y-4838700D03*
G01X5638800Y-7251700D03*
G01X5702300Y-8559800D03*
G01X5802300Y-5813400D03*
G01X5802300Y-4836300D03*
G01X6046000Y-5813400D03*
G01X6046000Y-4837100D03*
G01X6261100Y-8039100D03*
G01X6288900Y-5815800D03*
G01X6288900Y-4837900D03*
G01X6527800Y-7251700D03*
G01X6591300Y-8559800D03*
G01X6752849Y-5999988D03*
G01X6769100Y-1206500D03*
G01X6997700Y-6248400D03*
G01X6997700Y-5753100D03*
G01X7150100Y-8039100D03*
G01X7243790Y-5999988D03*
G01X7289800Y-3263900D03*
G01X7416800Y-7251700D03*
G01X7480300Y-8559800D03*
G01X7975600Y-2349500D03*
G01X8011668Y-2498090D03*
G01X8065300Y-5790400D03*
G01X8065300Y-4927600D03*
G01X8242300Y-5790400D03*
G01X8242300Y-4927600D03*
G01X8255000Y-3695700D03*
G01X8255000Y-3556000D03*
G01X8259322Y-3832144D03*
G01X8343900Y-3924300D03*
G01X8343900Y-3454400D03*
G01X8419300Y-5790400D03*
G01X8419300Y-4927600D03*
G01X8483600Y-3924300D03*
G01X8483600Y-3454400D03*
G01X8623783Y-5537200D03*
G01X8636000Y-3924300D03*
G01X8636000Y-3454400D03*
G01X8699983Y-6337300D03*
G01X8724900Y-3835400D03*
G01X8724900Y-3695700D03*
G01X8724900Y-3556000D03*
G01X8967864Y-8555863D03*
G01X8968181Y-7257085D03*
G01X9004300Y-3491700D03*
G01X9004300Y-3124200D03*
G01X9094734Y-2499995D03*
G01X9258300Y-4902200D03*
G01X9295139Y-2559439D03*
G01X9588500Y-2362200D03*
G01X9766300Y-2501900D03*
G04 Drill Drawing End*

M02*

