G04 Layer: TopSolderMaskLayer*
G04 EasyEDA Pro v2.2.40.8, 2025-08-06 11:59:20*
G04 Gerber Generator version 0.3*
G04 Scale: 100 percent, Rotated: No, Reflected: No*
G04 Dimensions in millimeters*
G04 Leading zeros omitted, absolute positions, 4 integers and 5 decimals*
G04 Generated by one-click*
%FSLAX45Y45*%
%MOMM*%
%AMRoundRect*1,1,$1,$2,$3*1,1,$1,$4,$5*1,1,$1,0-$2,0-$3*1,1,$1,0-$4,0-$5*20,1,$1,$2,$3,$4,$5,0*20,1,$1,$4,$5,0-$2,0-$3,0*20,1,$1,0-$2,0-$3,0-$4,0-$5,0*20,1,$1,0-$4,0-$5,$2,$3,0*4,1,4,$2,$3,$4,$5,0-$2,0-$3,0-$4,0-$5,$2,$3,0*%
%ADD10RoundRect,0.09495X-0.70833X0.67833X0.70833X0.67833*%
%ADD11RoundRect,0.09265X-0.47948X1.05447X0.47948X1.05447*%
%ADD12RoundRect,0.09265X-1.05447X0.47948X1.05447X0.47948*%
%ADD13RoundRect,0.09224X-0.45468X0.45468X0.45468X0.45468*%
%ADD14C,2.3016*%
%ADD15RoundRect,0.09603X-2.25278X0.82779X2.25278X0.82779*%
%ADD16RoundRect,0.0975X-0.67833X-0.70833X-0.67833X0.70833*%
%ADD17RoundRect,0.09495X-0.67833X-0.70833X-0.67833X0.70833*%
%ADD18RoundRect,0.09691X-1.00234X1.00234X1.00234X1.00234*%
%ADD19RoundRect,0.09691X-1.00234X-1.00234X-1.00234X1.00234*%
%ADD20RoundRect,0.09838X-1.75161X-1.50161X-1.75161X1.50161*%
%ADD21O,2.05181X0.67*%
%ADD22RoundRect,0.09368X-1.25396X0.55396X1.25396X0.55396*%
%ADD23RoundRect,0.09754X-1.17203X1.80203X1.17203X1.80203*%
%ADD24RoundRect,0.08756X-0.52576X0.27302X0.52576X0.27302*%
%ADD25RoundRect,0.09387X-0.57013X0.69237X0.57013X0.69237*%
%ADD26RoundRect,0.09387X-0.69237X-0.57013X-0.69237X0.57013*%
%ADD27RoundRect,0.09902X-1.90129X1.90129X1.90129X1.90129*%
%ADD28RoundRect,0.09816X-2.15171X1.40172X2.15171X1.40172*%
%ADD29C,2.1016*%
%ADD30O,2.5021X0.67559*%
%ADD31RoundRect,0.09077X-0.50541X0.38042X0.50541X0.38042*%
%ADD32RoundRect,0.09618X-0.85271X0.85271X0.85271X0.85271*%
%ADD33C,1.8016*%
%ADD34RoundRect,0.09618X-0.85271X-0.85271X-0.85271X0.85271*%
%ADD35RoundRect,0.09265X-0.85447X0.47948X0.85447X0.47948*%
%ADD36RoundRect,0.08756X-0.27302X-0.52576X-0.27302X0.52576*%
%ADD37RoundRect,0.09131X-0.40514X-0.40514X-0.40514X0.40514*%
%ADD38RoundRect,0.09561X-0.843X-0.76299X-0.843X0.76299*%
G75*


G04 Pad Start*
G54D10*
G01X9095140Y-2686439D03*
G01X9295139Y-2686439D03*
G54D11*
G01X9257192Y-2942128D03*
G01X9130192Y-2942128D03*
G01X9003192Y-2942128D03*
G01X8876192Y-2942128D03*
G01X8749192Y-2942128D03*
G01X8622192Y-2942128D03*
G01X8495192Y-2942128D03*
G01X8368192Y-2942128D03*
G01X8241192Y-2942128D03*
G01X8114192Y-2942128D03*
G01X7987192Y-2942128D03*
G01X7860192Y-2942128D03*
G01X7733192Y-2942128D03*
G01X7606192Y-2942128D03*
G54D12*
G01X7456687Y-3270652D03*
G01X7456687Y-3397652D03*
G01X7456687Y-3524652D03*
G01X7456687Y-3651652D03*
G01X7456687Y-3778652D03*
G01X7456687Y-3905652D03*
G01X7456687Y-4032652D03*
G01X7456687Y-4159652D03*
G01X7456687Y-4286652D03*
G01X7456687Y-4413652D03*
G54D11*
G01X7606192Y-4742150D03*
G01X7733192Y-4742150D03*
G01X7860192Y-4742150D03*
G01X7987192Y-4742150D03*
G01X8114192Y-4742150D03*
G01X8241192Y-4742150D03*
G01X8368192Y-4742150D03*
G01X8495192Y-4742150D03*
G01X8622192Y-4742150D03*
G01X8749192Y-4742150D03*
G01X8876192Y-4742150D03*
G01X9003192Y-4742150D03*
G01X9130192Y-4742150D03*
G01X9257192Y-4742150D03*
G54D13*
G01X8489096Y-3692114D03*
G01X8489096Y-3552135D03*
G01X8489096Y-3832144D03*
G01X8629101Y-3832144D03*
G01X8629101Y-3692139D03*
G01X8629101Y-3552135D03*
G01X8349091Y-3552135D03*
G01X8349091Y-3692139D03*
G01X8349091Y-3832144D03*
G54D14*
G01X1064197Y-399999D03*
G01X1445197Y-399999D03*
G01X1914195Y-399999D03*
G01X2295195Y-399999D03*
G54D15*
G01X2599982Y-2049996D03*
G01X1700009Y-2049996D03*
G01X2599982Y-3988092D03*
G01X1700009Y-3988092D03*
G54D10*
G01X2275396Y-3313493D03*
G01X2075396Y-3313493D03*
G54D17*
G01X4086972Y-3455632D03*
G01X4086972Y-3255632D03*
G54D10*
G01X4786972Y-2855632D03*
G01X4586973Y-2855632D03*
G54D18*
G01X3636289Y-3987800D03*
G01X3196311Y-3987800D03*
G54D19*
G01X406400Y-2582189D03*
G01X406400Y-2142211D03*
G54D20*
G01X3199994Y-2499995D03*
G01X3199994Y-3499993D03*
G54D14*
G01X399999Y-3390494D03*
G01X399999Y-3009494D03*
G54D21*
G01X2270506Y-3090494D03*
G01X2270506Y-2963494D03*
G01X2270506Y-2836494D03*
G01X2270506Y-2709494D03*
G01X1729486Y-3090494D03*
G01X1729486Y-2963494D03*
G01X1729486Y-2836494D03*
G01X1729486Y-2709494D03*
G54D22*
G01X4389978Y-3125635D03*
G01X4389978Y-3355632D03*
G01X4389978Y-3585629D03*
G54D23*
G01X4983970Y-3355632D03*
G54D17*
G01X2287295Y-5612689D03*
G01X2287295Y-5812688D03*
G54D24*
G01X1533563Y-5104994D03*
G01X1533563Y-5294986D03*
G01X1753832Y-5199990D03*
G54D14*
G01X399999Y-5390490D03*
G01X399999Y-5009490D03*
G54D25*
G01X1743697Y-5487289D03*
G01X1543698Y-5487289D03*
G01X1543698Y-4912690D03*
G01X1743697Y-4912690D03*
G54D26*
G01X1993900Y-5307000D03*
G01X1993900Y-5107000D03*
G54D21*
G01X2823210Y-5384800D03*
G01X2823210Y-5257800D03*
G01X2823210Y-5130800D03*
G01X2823210Y-5003800D03*
G01X2282190Y-5384800D03*
G01X2282190Y-5257800D03*
G01X2282190Y-5130800D03*
G01X2282190Y-5003800D03*
G54D14*
G01X399999Y-4440491D03*
G01X399999Y-4059491D03*
G54D27*
G01X7002490Y-5999988D03*
G54D28*
G01X4797483Y-5999988D03*
G54D17*
G01X4292600Y-5869000D03*
G01X4292600Y-6069000D03*
G01X2806700Y-5780100D03*
G01X2806700Y-5980100D03*
G54D29*
G01X5153990Y-399999D03*
G01X4772990Y-399999D03*
G01X4391990Y-399999D03*
G01X6403988Y-399999D03*
G01X6022988Y-399999D03*
G01X5641988Y-399999D03*
G01X7653985Y-399999D03*
G01X7272985Y-399999D03*
G01X6891985Y-399999D03*
G54D26*
G01X8623300Y-5243500D03*
G01X8623300Y-5043500D03*
G01X9004300Y-5243500D03*
G01X9004300Y-5043500D03*
G54D30*
G01X3074962Y-5655488D03*
G01X3074962Y-5782488D03*
G01X3074962Y-5909488D03*
G01X3074962Y-6036488D03*
G01X3074962Y-6163488D03*
G01X3074962Y-6290488D03*
G01X3074962Y-6417488D03*
G01X3074962Y-6544488D03*
G01X4025024Y-5655488D03*
G01X4025024Y-5782488D03*
G01X4025024Y-5909488D03*
G01X4025024Y-6036488D03*
G01X4025024Y-6163488D03*
G01X4025024Y-6290488D03*
G01X4025024Y-6417488D03*
G01X4025024Y-6544488D03*
G54D26*
G01X8864600Y-8939200D03*
G01X8864600Y-8739200D03*
G01X8877300Y-7631100D03*
G01X8877300Y-7431100D03*
G54D31*
G01X9085301Y-8562800D03*
G01X9685299Y-8562800D03*
G01X9085301Y-8937800D03*
G01X9685299Y-8937800D03*
G01X9087282Y-7260085D03*
G01X9687281Y-7260085D03*
G01X9087282Y-7635085D03*
G01X9687281Y-7635085D03*
G54D32*
G01X9030983Y-399999D03*
G54D33*
G01X8776983Y-399999D03*
G01X8522983Y-399999D03*
G01X8268983Y-399999D03*
G54D34*
G01X8349983Y-7880985D03*
G54D33*
G01X8349983Y-7626985D03*
G01X8349983Y-7372985D03*
G01X8349983Y-7118985D03*
G54D25*
G01X5272989Y-1349997D03*
G01X5072990Y-1349997D03*
G01X4872990Y-1349997D03*
G01X4672990Y-1349997D03*
G01X4472991Y-1349997D03*
G01X4272991Y-1349997D03*
G01X6122988Y-1349997D03*
G01X5922988Y-1349997D03*
G01X5722988Y-1349997D03*
G01X5522989Y-1349997D03*
G01X7372985Y-1349997D03*
G01X7172985Y-1349997D03*
G01X6972986Y-1349997D03*
G01X6772986Y-1349997D03*
G54D29*
G01X3903993Y-399999D03*
G01X3522993Y-399999D03*
G01X3141993Y-399999D03*
G54D25*
G01X3622993Y-1349997D03*
G01X3422993Y-1349997D03*
G01X3222993Y-1349997D03*
G01X3022994Y-1349997D03*
G01X4024592Y-1349997D03*
G01X3824592Y-1349997D03*
G01X6524587Y-1349997D03*
G01X6324587Y-1349997D03*
G01X7774584Y-1349997D03*
G01X7574585Y-1349997D03*
G54D35*
G01X7150303Y-7886700D03*
G01X7150303Y-8140700D03*
G01X7810297Y-8140700D03*
G01X7810297Y-7886700D03*
G01X6261303Y-7886700D03*
G01X6261303Y-8140700D03*
G01X6921297Y-8140700D03*
G01X6921297Y-7886700D03*
G01X5372303Y-7886700D03*
G01X5372303Y-8140700D03*
G01X6032297Y-8140700D03*
G01X6032297Y-7886700D03*
G01X4483303Y-7886700D03*
G01X4483303Y-8140700D03*
G01X5143297Y-8140700D03*
G01X5143297Y-7886700D03*
G01X3594303Y-7886700D03*
G01X3594303Y-8140700D03*
G01X4254297Y-8140700D03*
G01X4254297Y-7886700D03*
G01X2705303Y-7886700D03*
G01X2705303Y-8140700D03*
G01X3365297Y-8140700D03*
G01X3365297Y-7886700D03*
G01X1816303Y-7886700D03*
G01X1816303Y-8140700D03*
G01X2476297Y-8140700D03*
G01X2476297Y-7886700D03*
G01X927303Y-7886700D03*
G01X927303Y-8140700D03*
G01X1587297Y-8140700D03*
G01X1587297Y-7886700D03*
G54D25*
G01X7758100Y-8382000D03*
G01X7558100Y-8382000D03*
G01X7351700Y-7442200D03*
G01X7151700Y-7442200D03*
G01X7151700Y-7645400D03*
G01X7351700Y-7645400D03*
G01X7583500Y-7251700D03*
G01X7783500Y-7251700D03*
G01X6869100Y-8382000D03*
G01X6669100Y-8382000D03*
G01X6462700Y-7442200D03*
G01X6262700Y-7442200D03*
G01X6262700Y-7645400D03*
G01X6462700Y-7645400D03*
G01X6694500Y-7251700D03*
G01X6894500Y-7251700D03*
G01X5980100Y-8382000D03*
G01X5780100Y-8382000D03*
G01X5573700Y-7442200D03*
G01X5373700Y-7442200D03*
G01X5373700Y-7645400D03*
G01X5573700Y-7645400D03*
G01X5805500Y-7251700D03*
G01X6005500Y-7251700D03*
G01X5091100Y-8382000D03*
G01X4891100Y-8382000D03*
G01X4684700Y-7442200D03*
G01X4484700Y-7442200D03*
G01X4484700Y-7645400D03*
G01X4684700Y-7645400D03*
G01X4916500Y-7251700D03*
G01X5116500Y-7251700D03*
G01X4202100Y-8382000D03*
G01X4002100Y-8382000D03*
G01X3795700Y-7442200D03*
G01X3595700Y-7442200D03*
G01X3595700Y-7645400D03*
G01X3795700Y-7645400D03*
G01X4040200Y-7251700D03*
G01X4240200Y-7251700D03*
G01X3313100Y-8382000D03*
G01X3113100Y-8382000D03*
G01X2906700Y-7442200D03*
G01X2706700Y-7442200D03*
G01X2706700Y-7645400D03*
G01X2906700Y-7645400D03*
G01X3138500Y-7251700D03*
G01X3338500Y-7251700D03*
G01X2424100Y-8382000D03*
G01X2224100Y-8382000D03*
G01X2017700Y-7442200D03*
G01X1817700Y-7442200D03*
G01X1817700Y-7645400D03*
G01X2017700Y-7645400D03*
G01X2249500Y-7251700D03*
G01X2449500Y-7251700D03*
G01X1530302Y-8380400D03*
G01X1330302Y-8380400D03*
G01X1128700Y-7442200D03*
G01X928700Y-7442200D03*
G01X928700Y-7645400D03*
G01X1128700Y-7645400D03*
G01X1373200Y-7251700D03*
G01X1573200Y-7251700D03*
G54D36*
G01X7753096Y-8563966D03*
G01X7563104Y-8563966D03*
G01X7658100Y-8784234D03*
G54D24*
G01X7586066Y-7448804D03*
G01X7586066Y-7638796D03*
G01X7806334Y-7543800D03*
G54D36*
G01X6864096Y-8563966D03*
G01X6674104Y-8563966D03*
G01X6769100Y-8784234D03*
G54D24*
G01X6697066Y-7448804D03*
G01X6697066Y-7638796D03*
G01X6917334Y-7543800D03*
G54D36*
G01X5975096Y-8563966D03*
G01X5785104Y-8563966D03*
G01X5880100Y-8784234D03*
G54D24*
G01X5808066Y-7448804D03*
G01X5808066Y-7638796D03*
G01X6028334Y-7543800D03*
G54D36*
G01X5086096Y-8563966D03*
G01X4896104Y-8563966D03*
G01X4991100Y-8784234D03*
G54D24*
G01X4919066Y-7448804D03*
G01X4919066Y-7638796D03*
G01X5139334Y-7543800D03*
G54D36*
G01X4197096Y-8563966D03*
G01X4007104Y-8563966D03*
G01X4102100Y-8784234D03*
G54D24*
G01X4030066Y-7448804D03*
G01X4030066Y-7638796D03*
G01X4250334Y-7543800D03*
G54D36*
G01X3308096Y-8563966D03*
G01X3118104Y-8563966D03*
G01X3213100Y-8784234D03*
G54D24*
G01X3141066Y-7448804D03*
G01X3141066Y-7638796D03*
G01X3361334Y-7543800D03*
G54D36*
G01X2419096Y-8563966D03*
G01X2229104Y-8563966D03*
G01X2324100Y-8784234D03*
G54D24*
G01X2252066Y-7448804D03*
G01X2252066Y-7638796D03*
G01X2472334Y-7543800D03*
G54D36*
G01X1530096Y-8563966D03*
G01X1340104Y-8563966D03*
G01X1435100Y-8784234D03*
G54D24*
G01X1375766Y-7448804D03*
G01X1375766Y-7638796D03*
G01X1596034Y-7543800D03*
G54D14*
G01X7657186Y-9599981D03*
G01X7276186Y-9599981D03*
G01X6769087Y-9599981D03*
G01X6388087Y-9599981D03*
G01X5880989Y-9599981D03*
G01X5499989Y-9599981D03*
G01X4992891Y-9599981D03*
G01X4611891Y-9599981D03*
G01X4104792Y-9599981D03*
G01X3723792Y-9599981D03*
G01X3216694Y-9599981D03*
G01X2835694Y-9599981D03*
G01X2328596Y-9599981D03*
G01X1947596Y-9599981D03*
G01X1440498Y-9599981D03*
G01X1059498Y-9599981D03*
G54D37*
G01X7146354Y-7251713D03*
G01X7306247Y-7251687D03*
G01X6257354Y-7251713D03*
G01X6417247Y-7251687D03*
G01X5368354Y-7251713D03*
G01X5528247Y-7251687D03*
G01X4479354Y-7251713D03*
G01X4639247Y-7251687D03*
G01X3590354Y-7251713D03*
G01X3750247Y-7251687D03*
G01X2701354Y-7251713D03*
G01X2861247Y-7251687D03*
G01X1812354Y-7251713D03*
G01X1972247Y-7251687D03*
G01X923354Y-7251713D03*
G01X1083247Y-7251687D03*
G54D38*
G01X7277100Y-8781699D03*
G01X7277100Y-8388701D03*
G01X6388100Y-8781699D03*
G01X6388100Y-8388701D03*
G01X5499100Y-8781699D03*
G01X5499100Y-8388701D03*
G01X4610100Y-8781699D03*
G01X4610100Y-8388701D03*
G01X3721100Y-8781699D03*
G01X3721100Y-8388701D03*
G01X2832100Y-8781699D03*
G01X2832100Y-8388701D03*
G01X1943100Y-8781699D03*
G01X1943100Y-8388701D03*
G01X1061703Y-8780604D03*
G01X1061703Y-8387605D03*
G04 Pad End*

M02*

