G04 Layer: BottomSilkscreenLayer*
G04 EasyEDA Pro v2.2.40.8, 2025-08-06 11:59:20*
G04 Gerber Generator version 0.3*
G04 Scale: 100 percent, Rotated: No, Reflected: No*
G04 Dimensions in millimeters*
G04 Leading zeros omitted, absolute positions, 4 integers and 5 decimals*
G04 Generated by one-click*
%FSLAX45Y45*%
%MOMM*%
%ADD10C,0.2032*%
%ADD11C,0.8597*%
G75*


G04 Text Start*
G54D10*
G01X2736494Y-8537588D02*
G01X2754274Y-8546478D01*
G01X2772054Y-8564258D01*
G01X2780944Y-8582038D01*
G01X2789834Y-8608708D01*
G01X2789834Y-8653158D01*
G01X2780944Y-8679828D01*
G01X2772054Y-8697608D01*
G01X2754274Y-8715388D01*
G01X2736494Y-8724278D01*
G01X2700934Y-8724278D01*
G01X2683154Y-8715388D01*
G01X2665374Y-8697608D01*
G01X2656484Y-8679828D01*
G01X2647594Y-8653158D01*
G01X2647594Y-8608708D01*
G01X2656484Y-8582038D01*
G01X2665374Y-8564258D01*
G01X2683154Y-8546478D01*
G01X2700934Y-8537588D01*
G01X2736494Y-8537588D01*
G01X2460142Y-8537588D02*
G01X2584602Y-8724278D01*
G01X2584602Y-8537588D02*
G01X2460142Y-8537588D01*
G01X2584602Y-8724278D02*
G01X2460142Y-8724278D01*
G01X2343810Y-8537588D02*
G01X2361590Y-8546478D01*
G01X2379370Y-8564258D01*
G01X2388260Y-8582038D01*
G01X2397150Y-8608708D01*
G01X2397150Y-8653158D01*
G01X2388260Y-8679828D01*
G01X2379370Y-8697608D01*
G01X2361590Y-8715388D01*
G01X2343810Y-8724278D01*
G01X2308250Y-8724278D01*
G01X2290470Y-8715388D01*
G01X2272690Y-8697608D01*
G01X2263800Y-8679828D01*
G01X2254910Y-8653158D01*
G01X2254910Y-8608708D01*
G01X2263800Y-8582038D01*
G01X2272690Y-8564258D01*
G01X2290470Y-8546478D01*
G01X2308250Y-8537588D01*
G01X2343810Y-8537588D01*
G01X2191918Y-8537588D02*
G01X2191918Y-8724278D01*
G01X2191918Y-8537588D02*
G01X2067458Y-8724278D01*
G01X2067458Y-8537588D02*
G01X2067458Y-8724278D01*
G01X1951126Y-8537588D02*
G01X1968906Y-8546478D01*
G01X1986686Y-8564258D01*
G01X1995576Y-8582038D01*
G01X2004466Y-8608708D01*
G01X2004466Y-8653158D01*
G01X1995576Y-8679828D01*
G01X1986686Y-8697608D01*
G01X1968906Y-8715388D01*
G01X1951126Y-8724278D01*
G01X1915566Y-8724278D01*
G01X1897786Y-8715388D01*
G01X1880006Y-8697608D01*
G01X1871116Y-8679828D01*
G01X1862226Y-8653158D01*
G01X1862226Y-8608708D01*
G01X1871116Y-8582038D01*
G01X1880006Y-8564258D01*
G01X1897786Y-8546478D01*
G01X1915566Y-8537588D01*
G01X1951126Y-8537588D01*
G01X1665884Y-8582038D02*
G01X1674774Y-8564258D01*
G01X1692554Y-8546478D01*
G01X1710334Y-8537588D01*
G01X1745894Y-8537588D01*
G01X1763674Y-8546478D01*
G01X1781454Y-8564258D01*
G01X1790344Y-8582038D01*
G01X1799234Y-8608708D01*
G01X1799234Y-8653158D01*
G01X1790344Y-8679828D01*
G01X1781454Y-8697608D01*
G01X1763674Y-8715388D01*
G01X1745894Y-8724278D01*
G01X1710334Y-8724278D01*
G01X1692554Y-8715388D01*
G01X1674774Y-8697608D01*
G01X1665884Y-8679828D01*
G01X1665884Y-8653158D01*
G01X1710334Y-8653158D02*
G01X1665884Y-8653158D01*
G01X1602892Y-8537588D02*
G01X1602892Y-8724278D01*
G01X1602892Y-8537588D02*
G01X1522882Y-8537588D01*
G01X1496212Y-8546478D01*
G01X1487322Y-8555368D01*
G01X1478432Y-8573148D01*
G01X1478432Y-8590928D01*
G01X1487322Y-8608708D01*
G01X1496212Y-8617598D01*
G01X1522882Y-8626488D01*
G01X1602892Y-8626488D01*
G01X1540662Y-8626488D02*
G01X1478432Y-8724278D01*
G01X1362100Y-8537588D02*
G01X1379880Y-8546478D01*
G01X1397660Y-8564258D01*
G01X1406550Y-8582038D01*
G01X1415440Y-8608708D01*
G01X1415440Y-8653158D01*
G01X1406550Y-8679828D01*
G01X1397660Y-8697608D01*
G01X1379880Y-8715388D01*
G01X1362100Y-8724278D01*
G01X1326540Y-8724278D01*
G01X1308760Y-8715388D01*
G01X1290980Y-8697608D01*
G01X1282090Y-8679828D01*
G01X1273200Y-8653158D01*
G01X1273200Y-8608708D01*
G01X1282090Y-8582038D01*
G01X1290980Y-8564258D01*
G01X1308760Y-8546478D01*
G01X1326540Y-8537588D01*
G01X1362100Y-8537588D01*
G01X1210208Y-8537588D02*
G01X1210208Y-8670938D01*
G01X1201318Y-8697608D01*
G01X1183538Y-8715388D01*
G01X1156868Y-8724278D01*
G01X1139088Y-8724278D01*
G01X1112418Y-8715388D01*
G01X1094638Y-8697608D01*
G01X1085748Y-8670938D01*
G01X1085748Y-8537588D01*
G01X1022756Y-8537588D02*
G01X1022756Y-8724278D01*
G01X1022756Y-8537588D02*
G01X942746Y-8537588D01*
G01X916076Y-8546478D01*
G01X907186Y-8555368D01*
G01X898296Y-8573148D01*
G01X898296Y-8599818D01*
G01X907186Y-8617598D01*
G01X916076Y-8626488D01*
G01X942746Y-8635378D01*
G01X1022756Y-8635378D01*
G01X2718714Y-8937587D02*
G01X2789834Y-9124277D01*
G01X2718714Y-8937587D02*
G01X2647594Y-9124277D01*
G01X2763164Y-9062047D02*
G01X2674264Y-9062047D01*
G01X2584602Y-8937587D02*
G01X2584602Y-9070937D01*
G01X2575712Y-9097607D01*
G01X2557932Y-9115387D01*
G01X2531262Y-9124277D01*
G01X2513482Y-9124277D01*
G01X2486812Y-9115387D01*
G01X2469032Y-9097607D01*
G01X2460142Y-9070937D01*
G01X2460142Y-8937587D01*
G01X2397150Y-8937587D02*
G01X2397150Y-9124277D01*
G01X2397150Y-8937587D02*
G01X2317140Y-8937587D01*
G01X2290470Y-8946477D01*
G01X2281580Y-8955367D01*
G01X2272690Y-8973147D01*
G01X2272690Y-8990927D01*
G01X2281580Y-9008707D01*
G01X2290470Y-9017597D01*
G01X2317140Y-9026487D01*
G01X2397150Y-9026487D01*
G01X2334920Y-9026487D02*
G01X2272690Y-9124277D01*
G01X2156358Y-8937587D02*
G01X2174138Y-8946477D01*
G01X2191918Y-8964257D01*
G01X2200808Y-8982037D01*
G01X2209698Y-9008707D01*
G01X2209698Y-9053157D01*
G01X2200808Y-9079827D01*
G01X2191918Y-9097607D01*
G01X2174138Y-9115387D01*
G01X2156358Y-9124277D01*
G01X2120798Y-9124277D01*
G01X2103018Y-9115387D01*
G01X2085238Y-9097607D01*
G01X2076348Y-9079827D01*
G01X2067458Y-9053157D01*
G01X2067458Y-9008707D01*
G01X2076348Y-8982037D01*
G01X2085238Y-8964257D01*
G01X2103018Y-8946477D01*
G01X2120798Y-8937587D01*
G01X2156358Y-8937587D01*
G01X2004466Y-8937587D02*
G01X2004466Y-9124277D01*
G01X2004466Y-8937587D02*
G01X1924456Y-8937587D01*
G01X1897786Y-8946477D01*
G01X1888896Y-8955367D01*
G01X1880006Y-8973147D01*
G01X1880006Y-8990927D01*
G01X1888896Y-9008707D01*
G01X1897786Y-9017597D01*
G01X1924456Y-9026487D01*
G01X2004466Y-9026487D01*
G01X1942236Y-9026487D02*
G01X1880006Y-9124277D01*
G01X1745894Y-8937587D02*
G01X1817014Y-9124277D01*
G01X1745894Y-8937587D02*
G01X1674774Y-9124277D01*
G01X1790344Y-9062047D02*
G01X1701444Y-9062047D01*
G01X1412646Y-8937587D02*
G01X1341526Y-9124277D01*
G01X1270406Y-8937587D02*
G01X1341526Y-9124277D01*
G01X1207414Y-8973147D02*
G01X1189634Y-8964257D01*
G01X1162964Y-8937587D01*
G01X1162964Y-9124277D01*
G01X1091082Y-9079827D02*
G01X1099972Y-9088717D01*
G01X1091082Y-9097607D01*
G01X1082192Y-9088717D01*
G01X1091082Y-9079827D01*
G01X965860Y-8937587D02*
G01X992530Y-8946477D01*
G01X1010310Y-8973147D01*
G01X1019200Y-9017597D01*
G01X1019200Y-9044267D01*
G01X1010310Y-9088717D01*
G01X992530Y-9115387D01*
G01X965860Y-9124277D01*
G01X948080Y-9124277D01*
G01X921410Y-9115387D01*
G01X903630Y-9088717D01*
G01X894740Y-9044267D01*
G01X894740Y-9017597D01*
G01X903630Y-8973147D01*
G01X921410Y-8946477D01*
G01X948080Y-8937587D01*
G01X965860Y-8937587D01*
G04 Text End*

M02*

